<svg width="50" height="36" viewBox="0 0 50 36" fill="none" xmlns="http://www.w3.org/2000/svg">
<g clip-path="url(#clip0)">
<path d="M46.7354 19.9313C44.7698 18.1341 44.9931 17.0241 47.6289 15.6152C48.6598 16.1787 49.8728 16.7354 49.622 18.2062C49.4021 19.5155 48.3814 20.0757 47.1546 20.0963C45.6804 25.9863 42.0687 29.9245 36.4089 31.9038C35.4158 32.2475 34.6014 32.4571 34.1787 33.4983C33.7148 34.6461 32.6804 34.8729 31.622 34.6736C30.8179 34.5121 29.9278 32.8007 30.2474 32.1409C30.6873 31.275 31.2199 30.4674 32.457 30.5602C33.5395 30.6427 33.921 31.4949 34.5189 32.1306" stroke="#F08605" stroke-width="1.8" stroke-linecap="round" stroke-linejoin="round"/>
<path d="M25.7941 23.8762C27.428 21.4432 26.8992 19.3459 24.4572 18.5289C23.0937 18.0714 21.7836 18.5081 20.8923 19.7172C20.2982 20.5401 20.2982 22.3433 20.8923 23.2821C21.7063 24.5298 22.8946 24.9665 24.3117 24.6338C24.7897 24.5214 25.2423 24.3199 25.6455 24.0396" stroke="#F08605" stroke-width="1.8" stroke-linecap="round" stroke-linejoin="round"/>
<path d="M35.0516 7.04814C31.6151 5.80072 28.3952 6.1856 25.6186 8.61172C22.6633 11.1822 21.1031 14.3471 22.1822 18.3883" stroke="#F08605" stroke-width="1.8" stroke-linecap="round" stroke-linejoin="round"/>
<path d="M-1.65636 25.7732C-1.19931 25.7732 -0.738831 25.7732 -0.281786 25.7732C0.780069 25.7973 1.28179 25.2852 1.26804 24.2268C1.26804 23.0241 1.34021 21.8213 1.24399 20.6186C1.15464 19.512 1.42955 18.6942 2.61856 18.2131C3.49485 18.3505 3.73196 18.9931 3.68729 19.9313C3.62887 21.244 3.63918 22.567 3.68729 23.8797C3.72165 24.8626 4.08591 25.7801 5.22337 25.7354C6.28866 25.6942 6.47079 24.8316 6.43986 23.8797C6.39175 22.5052 6.43986 21.1306 6.41581 19.756C6.39519 18.8729 6.79381 18.2199 7.62543 18.2577C8.36082 18.2887 8.94845 18.7285 8.86254 19.756C8.76833 21.1872 8.7603 22.6228 8.83849 24.055C8.86942 24.9141 9.07904 25.811 10.2131 25.7526C11.2062 25.701 11.3883 24.866 11.4089 24.055C11.4399 22.7973 11.4502 21.5361 11.4089 20.2749C11.3746 19.299 11.6254 18.5567 12.6289 18.2131C13.3471 18.5773 13.9347 18.9725 14.0034 19.9313C14.1993 22.1581 14.3471 22.2371 16.5601 21.8248" stroke="#F08605" stroke-width="1.5" stroke-linecap="round" stroke-linejoin="round"/>
<path d="M41.0653 3.43646C45.0241 6.47426 47.134 10.5224 47.5945 15.464" stroke="#F08605" stroke-width="1.8" stroke-linecap="round" stroke-linejoin="round"/>
<path d="M8.07561 10.3093C8.07561 9.39867 8.23025 8.44334 7.21651 7.90382C6.38145 7.45709 5.59108 7.27496 4.81101 8.06534C4.03094 8.85571 3.58764 9.63922 4.30242 10.653C5.01719 11.6667 5.89692 12.0722 7.05156 11.4983C7.48851 11.2084 7.88989 10.8682 8.24743 10.4846" stroke="#F08605" stroke-width="1.8" stroke-linecap="round" stroke-linejoin="round"/>
<path d="M19.0722 26.1169C21.8419 29.7835 25.3952 32.0963 30.0687 32.4743" stroke="#F08605" stroke-width="1.8" stroke-linecap="round" stroke-linejoin="round"/>
<path d="M19.9313 5.67358C17.7182 8.51207 16.1134 11.6014 15.9794 15.2956" stroke="#F08605" stroke-width="1.8" stroke-linecap="round" stroke-linejoin="round"/>
<path d="M26.6323 25.0859C29.7766 26.9279 32.9862 26.9691 36.2543 25.4296" stroke="#F08605" stroke-width="1.8" stroke-linecap="round" stroke-linejoin="round"/>
<path d="M31.6151 0.343675C28.6549 0.254726 25.7506 1.16234 23.3677 2.92099" stroke="#F08605" stroke-width="1.8" stroke-linecap="round" stroke-linejoin="round"/>
<path d="M39.0034 9.62201C39.9781 10.7103 40.7116 11.9924 41.1558 13.3842C41.6 14.7759 41.7448 16.2459 41.5808 17.6976" stroke="#F08605" stroke-width="1.8" stroke-linecap="round" stroke-linejoin="round"/>
<path d="M35.0516 7.21655C34.8316 8.01724 34.6564 8.86947 35.0756 9.62205C35.3587 10.06 35.7973 10.3744 36.3029 10.5019C36.8086 10.6294 37.3438 10.5606 37.8007 10.3093C39.0309 9.65985 39.0138 8.59112 38.6323 7.56019C38.1993 6.37806 37.1787 6.22686 36.0825 6.52926C35.775 6.66102 35.4853 6.83072 35.2199 7.03442" stroke="#F08605" stroke-width="1.8" stroke-linecap="round" stroke-linejoin="round"/>
<path d="M23.5395 3.09282C24.1478 4.85571 23.8626 5.70794 22.5086 6.1856C21.3815 6.58079 20.0447 5.94505 19.7595 4.81103C19.6524 4.43815 19.6608 4.0416 19.7835 3.67356C19.9062 3.30553 20.1374 2.98326 20.4468 2.74918C21.3471 2.04127 22.2749 2.06189 23.1959 2.74918" stroke="#F08605" stroke-width="1.8" stroke-linecap="round" stroke-linejoin="round"/>
<path d="M17.5567 21.4811L17.9691 22.409L16.5258 23.543" stroke="#F08605" stroke-width="1.5" stroke-linecap="round" stroke-linejoin="round"/>
<path d="M31.2705 13.3678C29.6661 13.7215 28.7976 14.7876 28.6988 16.3581C28.6208 17.6011 29.2189 18.597 30.3578 19.2184C30.7209 19.4187 31.122 19.5406 31.5351 19.5764C31.9482 19.6123 32.3643 19.5612 32.7564 19.4264C33.1486 19.2917 33.5082 19.0764 33.8121 18.7942C34.116 18.5121 34.3574 18.1694 34.5208 17.7883C35.2385 16.2411 34.4818 14.2441 32.9607 13.6279C32.4698 13.4147 31.934 13.3254 31.4005 13.3678" stroke="#F08605" stroke-width="1.8" stroke-linecap="round" stroke-linejoin="round"/>
</g>
<defs>
<clipPath id="clip0">
<rect width="50" height="35.0928" fill="white"/>
</clipPath>
</defs>
</svg>
