<svg width="50" height="50" viewBox="0 0 50 50" fill="none" xmlns="http://www.w3.org/2000/svg">
<g clip-path="url(#clip0)">
<mask id="path-1-inside-1" fill="white">
<path d="M49.1667 44.3983V25C49.1644 24.8711 49.1315 24.7446 49.0708 24.6308H49.0792L47.0392 20.5517C46.6191 19.7013 45.7518 19.164 44.8033 19.1667H39.1667V18.3333C39.1666 18.1123 39.0788 17.9004 38.9225 17.7442L34.4108 13.2325C34.111 12.9357 33.74 12.7208 33.3333 12.6083V6.98749L35 6.53999V8.55833V8.56416C34.9991 9.4199 35.4267 10.2192 36.1392 10.6933C36.3869 10.8586 36.7039 10.8791 36.9709 10.7472C37.2378 10.6153 37.4141 10.351 37.4334 10.0539C37.4526 9.75673 37.3119 9.4719 37.0642 9.30666C36.8155 9.14148 36.6663 8.86266 36.6667 8.56416V8.55833V6.01916C37.25 5.68224 37.5731 5.0273 37.4856 4.35939C37.3981 3.69147 36.9171 3.14191 36.2667 2.96666L25.4283 0.0566549C25.1477 -0.0183357 24.8523 -0.0183357 24.5717 0.0566549L13.7333 2.96666C13.0045 3.16565 12.4989 3.82777 12.4989 4.58332C12.4989 5.33888 13.0045 6.001 13.7333 6.19999L16.6667 6.98749V12.5H16.6142C15.8733 12.5003 15.1709 12.8301 14.6975 13.4L11.0308 17.8C10.9045 17.9491 10.8346 18.1379 10.8333 18.3333V19.1667H5.19667C4.24894 19.1634 3.38179 19.6992 2.96083 20.5483L0.920833 24.6275H0.929167C0.867961 24.7422 0.835101 24.87 0.833333 25V44.3983C0.319374 44.6937 0.0017875 45.2406 0 45.8334V47.5C0 48.4205 0.746192 49.1667 1.66667 49.1667H12.7317C13.027 49.6806 13.5739 49.9982 14.1667 50H35.8333C36.4261 49.9982 36.973 49.6806 37.2683 49.1667H48.3333C49.2538 49.1667 50 48.4205 50 47.5V45.8334C49.9982 45.2406 49.6806 44.6937 49.1667 44.3983V44.3983ZM36.6667 44.1667H35.8333V25.8333H47.5V44.1667H36.6667ZM27.5 44.1667H22.5V35H27.5V44.1667ZM28.3333 33.3333H21.6667C21.2064 33.3333 20.8333 33.7064 20.8333 34.1667V44.1667H15.8333V25.8333H34.1667V44.1667H29.1667V34.1667C29.1667 33.7064 28.7936 33.3333 28.3333 33.3333ZM37.5 19.1667V20.8333H12.5V19.1667H37.5ZM35.8333 22.5V24.1667H14.1667V22.5H35.8333ZM44.8033 20.8333C45.1192 20.8323 45.4082 21.0111 45.5483 21.2942L46.985 24.1667H37.5V22.5C38.4205 22.5 39.1667 21.7538 39.1667 20.8333H44.8033ZM25 1.66666L35.845 4.58332H35.8342L25.0042 7.49999L14.1667 4.57666L25 1.66666ZM18.3333 7.43499L24.5717 9.10999C24.8522 9.18553 25.1478 9.18553 25.4283 9.10999L31.6667 7.43499V12.5H18.3333V7.43499ZM15.9742 14.4667C16.1324 14.2767 16.3669 14.1668 16.6142 14.1667H32.6425C32.8638 14.1665 33.0761 14.2543 33.2325 14.4108L36.3217 17.5H13.4458L15.9742 14.4667ZM4.45167 21.2942C4.59181 21.0111 4.88078 20.8323 5.19667 20.8333H10.8333C10.8333 21.7538 11.5795 22.5 12.5 22.5V24.1667H3.015L4.45167 21.2942ZM1.66667 45.8334H12.5V47.5H1.66667V45.8334ZM13.3333 44.1667H2.5V25.8333H14.1667V44.1667H13.3333ZM14.1667 48.3334V45.8334H35.8333V48.3334H14.1667ZM48.3333 47.5H37.5V45.8334H48.3333V47.5Z"/>
</mask>
<path d="M49.1667 44.3983V25C49.1644 24.8711 49.1315 24.7446 49.0708 24.6308H49.0792L47.0392 20.5517C46.6191 19.7013 45.7518 19.164 44.8033 19.1667H39.1667V18.3333C39.1666 18.1123 39.0788 17.9004 38.9225 17.7442L34.4108 13.2325C34.111 12.9357 33.74 12.7208 33.3333 12.6083V6.98749L35 6.53999V8.55833V8.56416C34.9991 9.4199 35.4267 10.2192 36.1392 10.6933C36.3869 10.8586 36.7039 10.8791 36.9709 10.7472C37.2378 10.6153 37.4141 10.351 37.4334 10.0539C37.4526 9.75673 37.3119 9.4719 37.0642 9.30666C36.8155 9.14148 36.6663 8.86266 36.6667 8.56416V8.55833V6.01916C37.25 5.68224 37.5731 5.0273 37.4856 4.35939C37.3981 3.69147 36.9171 3.14191 36.2667 2.96666L25.4283 0.0566549C25.1477 -0.0183357 24.8523 -0.0183357 24.5717 0.0566549L13.7333 2.96666C13.0045 3.16565 12.4989 3.82777 12.4989 4.58332C12.4989 5.33888 13.0045 6.001 13.7333 6.19999L16.6667 6.98749V12.5H16.6142C15.8733 12.5003 15.1709 12.8301 14.6975 13.4L11.0308 17.8C10.9045 17.9491 10.8346 18.1379 10.8333 18.3333V19.1667H5.19667C4.24894 19.1634 3.38179 19.6992 2.96083 20.5483L0.920833 24.6275H0.929167C0.867961 24.7422 0.835101 24.87 0.833333 25V44.3983C0.319374 44.6937 0.0017875 45.2406 0 45.8334V47.5C0 48.4205 0.746192 49.1667 1.66667 49.1667H12.7317C13.027 49.6806 13.5739 49.9982 14.1667 50H35.8333C36.4261 49.9982 36.973 49.6806 37.2683 49.1667H48.3333C49.2538 49.1667 50 48.4205 50 47.5V45.8334C49.9982 45.2406 49.6806 44.6937 49.1667 44.3983V44.3983ZM36.6667 44.1667H35.8333V25.8333H47.5V44.1667H36.6667ZM27.5 44.1667H22.5V35H27.5V44.1667ZM28.3333 33.3333H21.6667C21.2064 33.3333 20.8333 33.7064 20.8333 34.1667V44.1667H15.8333V25.8333H34.1667V44.1667H29.1667V34.1667C29.1667 33.7064 28.7936 33.3333 28.3333 33.3333ZM37.5 19.1667V20.8333H12.5V19.1667H37.5ZM35.8333 22.5V24.1667H14.1667V22.5H35.8333ZM44.8033 20.8333C45.1192 20.8323 45.4082 21.0111 45.5483 21.2942L46.985 24.1667H37.5V22.5C38.4205 22.5 39.1667 21.7538 39.1667 20.8333H44.8033ZM25 1.66666L35.845 4.58332H35.8342L25.0042 7.49999L14.1667 4.57666L25 1.66666ZM18.3333 7.43499L24.5717 9.10999C24.8522 9.18553 25.1478 9.18553 25.4283 9.10999L31.6667 7.43499V12.5H18.3333V7.43499ZM15.9742 14.4667C16.1324 14.2767 16.3669 14.1668 16.6142 14.1667H32.6425C32.8638 14.1665 33.0761 14.2543 33.2325 14.4108L36.3217 17.5H13.4458L15.9742 14.4667ZM4.45167 21.2942C4.59181 21.0111 4.88078 20.8323 5.19667 20.8333H10.8333C10.8333 21.7538 11.5795 22.5 12.5 22.5V24.1667H3.015L4.45167 21.2942ZM1.66667 45.8334H12.5V47.5H1.66667V45.8334ZM13.3333 44.1667H2.5V25.8333H14.1667V44.1667H13.3333ZM14.1667 48.3334V45.8334H35.8333V48.3334H14.1667ZM48.3333 47.5H37.5V45.8334H48.3333V47.5Z" fill="white" stroke="white" stroke-width="4" mask="url(#path-1-inside-1)"/>
<mask id="path-2-inside-2" fill="white">
<path d="M22.5 27.5C22.0397 27.5 21.6666 27.8731 21.6666 28.3333V30C21.6666 30.4603 22.0397 30.8334 22.5 30.8334C22.9602 30.8334 23.3333 30.4603 23.3333 30V28.3333C23.3333 27.8731 22.9602 27.5 22.5 27.5Z"/>
</mask>
<path d="M22.5 27.5C22.0397 27.5 21.6666 27.8731 21.6666 28.3333V30C21.6666 30.4603 22.0397 30.8334 22.5 30.8334C22.9602 30.8334 23.3333 30.4603 23.3333 30V28.3333C23.3333 27.8731 22.9602 27.5 22.5 27.5Z" fill="white"/>
<path d="M22.5 25.5C20.9352 25.5 19.6666 26.7685 19.6666 28.3333H23.6666C23.6666 28.9777 23.1443 29.5 22.5 29.5V25.5ZM19.6666 28.3333V30H23.6666V28.3333H19.6666ZM19.6666 30C19.6666 31.5648 20.9352 32.8334 22.5 32.8334V28.8334C23.1443 28.8334 23.6666 29.3557 23.6666 30H19.6666ZM22.5 32.8334C24.0648 32.8334 25.3333 31.5648 25.3333 30H21.3333C21.3333 29.3557 21.8556 28.8334 22.5 28.8334V32.8334ZM25.3333 30V28.3333H21.3333V30H25.3333ZM25.3333 28.3333C25.3333 26.7685 24.0648 25.5 22.5 25.5V29.5C21.8556 29.5 21.3333 28.9777 21.3333 28.3333H25.3333Z" fill="white" mask="url(#path-2-inside-2)"/>
<mask id="path-4-inside-3" fill="white">
<path d="M10.8333 28.3333C10.3731 28.3333 10 28.7064 10 29.1667V30.8333C10 31.2936 10.3731 31.6667 10.8333 31.6667C11.2936 31.6667 11.6667 31.2936 11.6667 30.8333V29.1667C11.6667 28.7064 11.2936 28.3333 10.8333 28.3333Z"/>
</mask>
<path d="M10.8333 28.3333C10.3731 28.3333 10 28.7064 10 29.1667V30.8333C10 31.2936 10.3731 31.6667 10.8333 31.6667C11.2936 31.6667 11.6667 31.2936 11.6667 30.8333V29.1667C11.6667 28.7064 11.2936 28.3333 10.8333 28.3333Z" fill="white"/>
<path d="M10.8333 26.3333C9.26853 26.3333 8 27.6019 8 29.1667H12C12 29.811 11.4777 30.3333 10.8333 30.3333V26.3333ZM8 29.1667V30.8333H12V29.1667H8ZM8 30.8333C8 32.3982 9.26853 33.6667 10.8333 33.6667V29.6667C11.4777 29.6667 12 30.189 12 30.8333H8ZM10.8333 33.6667C12.3981 33.6667 13.6667 32.3982 13.6667 30.8333H9.66667C9.66667 30.189 10.189 29.6667 10.8333 29.6667V33.6667ZM13.6667 30.8333V29.1667H9.66667V30.8333H13.6667ZM13.6667 29.1667C13.6667 27.6019 12.3981 26.3333 10.8333 26.3333V30.3333C10.189 30.3333 9.66667 29.811 9.66667 29.1667H13.6667Z" fill="white" mask="url(#path-4-inside-3)"/>
<mask id="path-6-inside-4" fill="white">
<path d="M5.8334 28.3333C5.37316 28.3333 5.00006 28.7064 5.00006 29.1667V30.8333C5.00006 31.2936 5.37316 31.6667 5.8334 31.6667C6.29363 31.6667 6.66673 31.2936 6.66673 30.8333V29.1667C6.66673 28.7064 6.29363 28.3333 5.8334 28.3333Z"/>
</mask>
<path d="M5.8334 28.3333C5.37316 28.3333 5.00006 28.7064 5.00006 29.1667V30.8333C5.00006 31.2936 5.37316 31.6667 5.8334 31.6667C6.29363 31.6667 6.66673 31.2936 6.66673 30.8333V29.1667C6.66673 28.7064 6.29363 28.3333 5.8334 28.3333Z" fill="white"/>
<path d="M5.8334 26.3333C4.26859 26.3333 3.00006 27.6019 3.00006 29.1667H7.00006C7.00006 29.811 6.47773 30.3333 5.8334 30.3333V26.3333ZM3.00006 29.1667V30.8333H7.00006V29.1667H3.00006ZM3.00006 30.8333C3.00006 32.3982 4.26859 33.6667 5.8334 33.6667V29.6667C6.47773 29.6667 7.00006 30.189 7.00006 30.8333H3.00006ZM5.8334 33.6667C7.3982 33.6667 8.66673 32.3982 8.66673 30.8333H4.66673C4.66673 30.189 5.18906 29.6667 5.8334 29.6667V33.6667ZM8.66673 30.8333V29.1667H4.66673V30.8333H8.66673ZM8.66673 29.1667C8.66673 27.6019 7.3982 26.3333 5.8334 26.3333V30.3333C5.18906 30.3333 4.66673 29.811 4.66673 29.1667H8.66673Z" fill="white" mask="url(#path-6-inside-4)"/>
<mask id="path-8-inside-5" fill="white">
<path d="M10.8333 33.3333C10.3731 33.3333 10 33.7064 10 34.1666V35.8333C10 36.2935 10.3731 36.6666 10.8333 36.6666C11.2936 36.6666 11.6667 36.2935 11.6667 35.8333V34.1666C11.6667 33.7064 11.2936 33.3333 10.8333 33.3333Z"/>
</mask>
<path d="M10.8333 33.3333C10.3731 33.3333 10 33.7064 10 34.1666V35.8333C10 36.2935 10.3731 36.6666 10.8333 36.6666C11.2936 36.6666 11.6667 36.2935 11.6667 35.8333V34.1666C11.6667 33.7064 11.2936 33.3333 10.8333 33.3333Z" fill="white"/>
<path d="M10.8333 31.3333C9.26853 31.3333 8 32.6018 8 34.1666H12C12 34.811 11.4777 35.3333 10.8333 35.3333V31.3333ZM8 34.1666V35.8333H12V34.1666H8ZM8 35.8333C8 37.3981 9.26853 38.6666 10.8333 38.6666V34.6666C11.4777 34.6666 12 35.189 12 35.8333H8ZM10.8333 38.6666C12.3981 38.6666 13.6667 37.3981 13.6667 35.8333H9.66667C9.66667 35.189 10.189 34.6666 10.8333 34.6666V38.6666ZM13.6667 35.8333V34.1666H9.66667V35.8333H13.6667ZM13.6667 34.1666C13.6667 32.6018 12.3981 31.3333 10.8333 31.3333V35.3333C10.189 35.3333 9.66667 34.811 9.66667 34.1666H13.6667Z" fill="white" mask="url(#path-8-inside-5)"/>
<mask id="path-10-inside-6" fill="white">
<path d="M5.8334 33.3333C5.37316 33.3333 5.00006 33.7064 5.00006 34.1666V35.8333C5.00006 36.2935 5.37316 36.6666 5.8334 36.6666C6.29363 36.6666 6.66673 36.2935 6.66673 35.8333V34.1666C6.66673 33.7064 6.29363 33.3333 5.8334 33.3333Z"/>
</mask>
<path d="M5.8334 33.3333C5.37316 33.3333 5.00006 33.7064 5.00006 34.1666V35.8333C5.00006 36.2935 5.37316 36.6666 5.8334 36.6666C6.29363 36.6666 6.66673 36.2935 6.66673 35.8333V34.1666C6.66673 33.7064 6.29363 33.3333 5.8334 33.3333Z" fill="white"/>
<path d="M5.8334 31.3333C4.26859 31.3333 3.00006 32.6018 3.00006 34.1666H7.00006C7.00006 34.811 6.47773 35.3333 5.8334 35.3333V31.3333ZM3.00006 34.1666V35.8333H7.00006V34.1666H3.00006ZM3.00006 35.8333C3.00006 37.3981 4.26859 38.6666 5.8334 38.6666V34.6666C6.47773 34.6666 7.00006 35.189 7.00006 35.8333H3.00006ZM5.8334 38.6666C7.3982 38.6666 8.66673 37.3981 8.66673 35.8333H4.66673C4.66673 35.189 5.18906 34.6666 5.8334 34.6666V38.6666ZM8.66673 35.8333V34.1666H4.66673V35.8333H8.66673ZM8.66673 34.1666C8.66673 32.6018 7.3982 31.3333 5.8334 31.3333V35.3333C5.18906 35.3333 4.66673 34.811 4.66673 34.1666H8.66673Z" fill="white" mask="url(#path-10-inside-6)"/>
<mask id="path-12-inside-7" fill="white">
<path d="M10.8333 38.3333C10.3731 38.3333 10 38.7064 10 39.1666V40.8333C10 41.2936 10.3731 41.6666 10.8333 41.6666C11.2936 41.6666 11.6667 41.2936 11.6667 40.8333V39.1666C11.6667 38.7064 11.2936 38.3333 10.8333 38.3333Z"/>
</mask>
<path d="M10.8333 38.3333C10.3731 38.3333 10 38.7064 10 39.1666V40.8333C10 41.2936 10.3731 41.6666 10.8333 41.6666C11.2936 41.6666 11.6667 41.2936 11.6667 40.8333V39.1666C11.6667 38.7064 11.2936 38.3333 10.8333 38.3333Z" fill="white"/>
<path d="M10.8333 36.3333C9.26853 36.3333 8 37.6018 8 39.1666H12C12 39.811 11.4777 40.3333 10.8333 40.3333V36.3333ZM8 39.1666V40.8333H12V39.1666H8ZM8 40.8333C8 42.3981 9.26853 43.6666 10.8333 43.6666V39.6666C11.4777 39.6666 12 40.189 12 40.8333H8ZM10.8333 43.6666C12.3981 43.6666 13.6667 42.3981 13.6667 40.8333H9.66667C9.66667 40.189 10.189 39.6666 10.8333 39.6666V43.6666ZM13.6667 40.8333V39.1666H9.66667V40.8333H13.6667ZM13.6667 39.1666C13.6667 37.6018 12.3981 36.3333 10.8333 36.3333V40.3333C10.189 40.3333 9.66667 39.811 9.66667 39.1666H13.6667Z" fill="white" mask="url(#path-12-inside-7)"/>
<mask id="path-14-inside-8" fill="white">
<path d="M5.8334 38.3333C5.37316 38.3333 5.00006 38.7064 5.00006 39.1666V40.8333C5.00006 41.2936 5.37316 41.6666 5.8334 41.6666C6.29363 41.6666 6.66673 41.2936 6.66673 40.8333V39.1666C6.66673 38.7064 6.29363 38.3333 5.8334 38.3333Z"/>
</mask>
<path d="M5.8334 38.3333C5.37316 38.3333 5.00006 38.7064 5.00006 39.1666V40.8333C5.00006 41.2936 5.37316 41.6666 5.8334 41.6666C6.29363 41.6666 6.66673 41.2936 6.66673 40.8333V39.1666C6.66673 38.7064 6.29363 38.3333 5.8334 38.3333Z" fill="white"/>
<path d="M5.8334 36.3333C4.26859 36.3333 3.00006 37.6018 3.00006 39.1666H7.00006C7.00006 39.811 6.47773 40.3333 5.8334 40.3333V36.3333ZM3.00006 39.1666V40.8333H7.00006V39.1666H3.00006ZM3.00006 40.8333C3.00006 42.3981 4.26859 43.6666 5.8334 43.6666V39.6666C6.47773 39.6666 7.00006 40.189 7.00006 40.8333H3.00006ZM5.8334 43.6666C7.3982 43.6666 8.66673 42.3981 8.66673 40.8333H4.66673C4.66673 40.189 5.18906 39.6666 5.8334 39.6666V43.6666ZM8.66673 40.8333V39.1666H4.66673V40.8333H8.66673ZM8.66673 39.1666C8.66673 37.6018 7.3982 36.3333 5.8334 36.3333V40.3333C5.18906 40.3333 4.66673 39.811 4.66673 39.1666H8.66673Z" fill="white" mask="url(#path-14-inside-8)"/>
<mask id="path-16-inside-9" fill="white">
<path d="M44.1666 28.3333C43.7064 28.3333 43.3333 28.7064 43.3333 29.1667V30.8333C43.3333 31.2936 43.7064 31.6667 44.1666 31.6667C44.6268 31.6667 44.9999 31.2936 44.9999 30.8333V29.1667C44.9999 28.7064 44.6268 28.3333 44.1666 28.3333Z"/>
</mask>
<path d="M44.1666 28.3333C43.7064 28.3333 43.3333 28.7064 43.3333 29.1667V30.8333C43.3333 31.2936 43.7064 31.6667 44.1666 31.6667C44.6268 31.6667 44.9999 31.2936 44.9999 30.8333V29.1667C44.9999 28.7064 44.6268 28.3333 44.1666 28.3333Z" fill="white"/>
<path d="M44.1666 26.3333C42.6018 26.3333 41.3333 27.6019 41.3333 29.1667H45.3333C45.3333 29.811 44.811 30.3333 44.1666 30.3333V26.3333ZM41.3333 29.1667V30.8333H45.3333V29.1667H41.3333ZM41.3333 30.8333C41.3333 32.3981 42.6018 33.6667 44.1666 33.6667V29.6667C44.811 29.6667 45.3333 30.189 45.3333 30.8333H41.3333ZM44.1666 33.6667C45.7314 33.6667 46.9999 32.3981 46.9999 30.8333H42.9999C42.9999 30.189 43.5223 29.6667 44.1666 29.6667V33.6667ZM46.9999 30.8333V29.1667H42.9999V30.8333H46.9999ZM46.9999 29.1667C46.9999 27.6019 45.7314 26.3333 44.1666 26.3333V30.3333C43.5223 30.3333 42.9999 29.811 42.9999 29.1667H46.9999Z" fill="white" mask="url(#path-16-inside-9)"/>
<mask id="path-18-inside-10" fill="white">
<path d="M39.1667 28.3333C38.7064 28.3333 38.3333 28.7064 38.3333 29.1667V30.8333C38.3333 31.2936 38.7064 31.6667 39.1667 31.6667C39.6269 31.6667 40 31.2936 40 30.8333V29.1667C40 28.7064 39.6269 28.3333 39.1667 28.3333Z"/>
</mask>
<path d="M39.1667 28.3333C38.7064 28.3333 38.3333 28.7064 38.3333 29.1667V30.8333C38.3333 31.2936 38.7064 31.6667 39.1667 31.6667C39.6269 31.6667 40 31.2936 40 30.8333V29.1667C40 28.7064 39.6269 28.3333 39.1667 28.3333Z" fill="white"/>
<path d="M39.1667 26.3333C37.6018 26.3333 36.3333 27.6019 36.3333 29.1667H40.3333C40.3333 29.811 39.811 30.3333 39.1667 30.3333V26.3333ZM36.3333 29.1667V30.8333H40.3333V29.1667H36.3333ZM36.3333 30.8333C36.3333 32.3981 37.6018 33.6667 39.1667 33.6667V29.6667C39.811 29.6667 40.3333 30.189 40.3333 30.8333H36.3333ZM39.1667 33.6667C40.7315 33.6667 42 32.3981 42 30.8333H38C38 30.189 38.5223 29.6667 39.1667 29.6667V33.6667ZM42 30.8333V29.1667H38V30.8333H42ZM42 29.1667C42 27.6019 40.7315 26.3333 39.1667 26.3333V30.3333C38.5223 30.3333 38 29.811 38 29.1667H42Z" fill="white" mask="url(#path-18-inside-10)"/>
<mask id="path-20-inside-11" fill="white">
<path d="M44.1666 33.3333C43.7064 33.3333 43.3333 33.7064 43.3333 34.1666V35.8333C43.3333 36.2935 43.7064 36.6666 44.1666 36.6666C44.6268 36.6666 44.9999 36.2935 44.9999 35.8333V34.1666C44.9999 33.7064 44.6268 33.3333 44.1666 33.3333Z"/>
</mask>
<path d="M44.1666 33.3333C43.7064 33.3333 43.3333 33.7064 43.3333 34.1666V35.8333C43.3333 36.2935 43.7064 36.6666 44.1666 36.6666C44.6268 36.6666 44.9999 36.2935 44.9999 35.8333V34.1666C44.9999 33.7064 44.6268 33.3333 44.1666 33.3333Z" fill="white"/>
<path d="M44.1666 31.3333C42.6018 31.3333 41.3333 32.6018 41.3333 34.1666H45.3333C45.3333 34.8109 44.811 35.3333 44.1666 35.3333V31.3333ZM41.3333 34.1666V35.8333H45.3333V34.1666H41.3333ZM41.3333 35.8333C41.3333 37.3981 42.6018 38.6666 44.1666 38.6666V34.6666C44.811 34.6666 45.3333 35.189 45.3333 35.8333H41.3333ZM44.1666 38.6666C45.7314 38.6666 46.9999 37.3981 46.9999 35.8333H42.9999C42.9999 35.189 43.5223 34.6666 44.1666 34.6666V38.6666ZM46.9999 35.8333V34.1666H42.9999V35.8333H46.9999ZM46.9999 34.1666C46.9999 32.6018 45.7314 31.3333 44.1666 31.3333V35.3333C43.5223 35.3333 42.9999 34.8109 42.9999 34.1666H46.9999Z" fill="white" mask="url(#path-20-inside-11)"/>
<mask id="path-22-inside-12" fill="white">
<path d="M39.1667 33.3333C38.7064 33.3333 38.3333 33.7064 38.3333 34.1666V35.8333C38.3333 36.2935 38.7064 36.6666 39.1667 36.6666C39.6269 36.6666 40 36.2935 40 35.8333V34.1666C40 33.7064 39.6269 33.3333 39.1667 33.3333Z"/>
</mask>
<path d="M39.1667 33.3333C38.7064 33.3333 38.3333 33.7064 38.3333 34.1666V35.8333C38.3333 36.2935 38.7064 36.6666 39.1667 36.6666C39.6269 36.6666 40 36.2935 40 35.8333V34.1666C40 33.7064 39.6269 33.3333 39.1667 33.3333Z" fill="white"/>
<path d="M39.1667 31.3333C37.6018 31.3333 36.3333 32.6018 36.3333 34.1666H40.3333C40.3333 34.8109 39.811 35.3333 39.1667 35.3333V31.3333ZM36.3333 34.1666V35.8333H40.3333V34.1666H36.3333ZM36.3333 35.8333C36.3333 37.3981 37.6018 38.6666 39.1667 38.6666V34.6666C39.811 34.6666 40.3333 35.189 40.3333 35.8333H36.3333ZM39.1667 38.6666C40.7315 38.6666 42 37.3981 42 35.8333H38C38 35.189 38.5223 34.6666 39.1667 34.6666V38.6666ZM42 35.8333V34.1666H38V35.8333H42ZM42 34.1666C42 32.6018 40.7315 31.3333 39.1667 31.3333V35.3333C38.5223 35.3333 38 34.8109 38 34.1666H42Z" fill="white" mask="url(#path-22-inside-12)"/>
<mask id="path-24-inside-13" fill="white">
<path d="M44.1666 38.3333C43.7064 38.3333 43.3333 38.7064 43.3333 39.1666V40.8333C43.3333 41.2936 43.7064 41.6666 44.1666 41.6666C44.6268 41.6666 44.9999 41.2936 44.9999 40.8333V39.1666C44.9999 38.7064 44.6268 38.3333 44.1666 38.3333Z"/>
</mask>
<path d="M44.1666 38.3333C43.7064 38.3333 43.3333 38.7064 43.3333 39.1666V40.8333C43.3333 41.2936 43.7064 41.6666 44.1666 41.6666C44.6268 41.6666 44.9999 41.2936 44.9999 40.8333V39.1666C44.9999 38.7064 44.6268 38.3333 44.1666 38.3333Z" fill="white"/>
<path d="M44.1666 36.3333C42.6018 36.3333 41.3333 37.6019 41.3333 39.1666H45.3333C45.3333 39.811 44.811 40.3333 44.1666 40.3333V36.3333ZM41.3333 39.1666V40.8333H45.3333V39.1666H41.3333ZM41.3333 40.8333C41.3333 42.3981 42.6018 43.6666 44.1666 43.6666V39.6666C44.811 39.6666 45.3333 40.189 45.3333 40.8333H41.3333ZM44.1666 43.6666C45.7314 43.6666 46.9999 42.3981 46.9999 40.8333H42.9999C42.9999 40.189 43.5223 39.6666 44.1666 39.6666V43.6666ZM46.9999 40.8333V39.1666H42.9999V40.8333H46.9999ZM46.9999 39.1666C46.9999 37.6019 45.7314 36.3333 44.1666 36.3333V40.3333C43.5223 40.3333 42.9999 39.811 42.9999 39.1666H46.9999Z" fill="white" mask="url(#path-24-inside-13)"/>
<mask id="path-26-inside-14" fill="white">
<path d="M39.1667 38.3333C38.7064 38.3333 38.3333 38.7064 38.3333 39.1666V40.8333C38.3333 41.2936 38.7064 41.6666 39.1667 41.6666C39.6269 41.6666 40 41.2936 40 40.8333V39.1666C40 38.7064 39.6269 38.3333 39.1667 38.3333Z"/>
</mask>
<path d="M39.1667 38.3333C38.7064 38.3333 38.3333 38.7064 38.3333 39.1666V40.8333C38.3333 41.2936 38.7064 41.6666 39.1667 41.6666C39.6269 41.6666 40 41.2936 40 40.8333V39.1666C40 38.7064 39.6269 38.3333 39.1667 38.3333Z" fill="white"/>
<path d="M39.1667 36.3333C37.6018 36.3333 36.3333 37.6019 36.3333 39.1666H40.3333C40.3333 39.811 39.811 40.3333 39.1667 40.3333V36.3333ZM36.3333 39.1666V40.8333H40.3333V39.1666H36.3333ZM36.3333 40.8333C36.3333 42.3981 37.6018 43.6666 39.1667 43.6666V39.6666C39.811 39.6666 40.3333 40.189 40.3333 40.8333H36.3333ZM39.1667 43.6666C40.7315 43.6666 42 42.3981 42 40.8333H38C38 40.189 38.5223 39.6666 39.1667 39.6666V43.6666ZM42 40.8333V39.1666H38V40.8333H42ZM42 39.1666C42 37.6019 40.7315 36.3333 39.1667 36.3333V40.3333C38.5223 40.3333 38 39.811 38 39.1666H42Z" fill="white" mask="url(#path-26-inside-14)"/>
<mask id="path-28-inside-15" fill="white">
<path d="M27.5 27.5C27.0398 27.5 26.6667 27.8731 26.6667 28.3333V30C26.6667 30.4603 27.0398 30.8334 27.5 30.8334C27.9602 30.8334 28.3333 30.4603 28.3333 30V28.3333C28.3333 27.8731 27.9602 27.5 27.5 27.5Z"/>
</mask>
<path d="M27.5 27.5C27.0398 27.5 26.6667 27.8731 26.6667 28.3333V30C26.6667 30.4603 27.0398 30.8334 27.5 30.8334C27.9602 30.8334 28.3333 30.4603 28.3333 30V28.3333C28.3333 27.8731 27.9602 27.5 27.5 27.5Z" fill="white"/>
<path d="M27.5 25.5C25.9352 25.5 24.6667 26.7686 24.6667 28.3333H28.6667C28.6667 28.9777 28.1444 29.5 27.5 29.5V25.5ZM24.6667 28.3333V30H28.6667V28.3333H24.6667ZM24.6667 30C24.6667 31.5648 25.9352 32.8334 27.5 32.8334V28.8334C28.1444 28.8334 28.6667 29.3557 28.6667 30H24.6667ZM27.5 32.8334C29.0648 32.8334 30.3333 31.5648 30.3333 30H26.3333C26.3333 29.3557 26.8557 28.8334 27.5 28.8334V32.8334ZM30.3333 30V28.3333H26.3333V30H30.3333ZM30.3333 28.3333C30.3333 26.7686 29.0648 25.5 27.5 25.5V29.5C26.8557 29.5 26.3333 28.9777 26.3333 28.3333H30.3333Z" fill="white" mask="url(#path-28-inside-15)"/>
</g>
<defs>
<clipPath id="clip0">
<rect width="50" height="50" fill="white"/>
</clipPath>
</defs>
</svg>
