<svg width="21" height="20" viewBox="0 0 21 20" fill="none" xmlns="http://www.w3.org/2000/svg">
<path d="M10.0112 0C5.93277 0 2.61484 3.31421 2.61484 7.38809C2.61484 8.72925 3.21699 10.1717 3.24223 10.2325C3.43671 10.6936 3.82045 11.4098 4.09716 11.8296L9.16847 19.505C9.376 19.8196 9.68317 20 10.0112 20C10.3393 20 10.6464 19.8196 10.854 19.5054L15.9257 11.8296C16.2029 11.4098 16.5862 10.6936 16.7807 10.2325C16.8059 10.1721 17.4076 8.72968 17.4076 7.38809C17.4076 3.31421 14.0897 0 10.0112 0ZM15.9784 9.89526C15.8048 10.3086 15.4476 10.9748 15.1991 11.3512L10.1274 19.0269C10.0273 19.1786 9.99556 19.1786 9.89549 19.0269L4.82375 11.3512C4.57531 10.9748 4.21811 10.3081 4.04452 9.89483C4.03712 9.87701 3.485 8.54933 3.485 7.38809C3.485 3.79357 6.41266 0.869187 10.0112 0.869187C13.6098 0.869187 16.5374 3.79357 16.5374 7.38809C16.5374 8.55106 15.984 9.88223 15.9784 9.89526Z" fill="white"/>
<path d="M10.0112 3.47705C7.85192 3.47705 6.09549 5.23194 6.09549 7.38839C6.09549 9.54485 7.85192 11.2997 10.0112 11.2997C12.1705 11.2997 13.927 9.54485 13.927 7.38839C13.927 5.23194 12.1705 3.47705 10.0112 3.47705ZM10.0112 10.4305C8.33225 10.4305 6.96565 9.06592 6.96565 7.38839C6.96565 5.71086 8.33225 4.34624 10.0112 4.34624C11.6902 4.34624 13.0568 5.71086 13.0568 7.38839C13.0568 9.06592 11.6902 10.4305 10.0112 10.4305Z" fill="white"/>
</svg>
