<svg width="38" height="50" viewBox="0 0 38 50" fill="none" xmlns="http://www.w3.org/2000/svg">
<path d="M19 0C8.81527 0 0.529739 8.28553 0.529739 18.4702C0.529739 21.8231 2.03343 25.4292 2.09645 25.5813C2.58211 26.734 3.54039 28.5246 4.23139 29.5741L16.8955 48.7625C17.4137 49.5491 18.1808 50 19 50C19.8192 50 20.5862 49.5491 21.1045 48.7636L33.7696 29.5741C34.4617 28.5246 35.4189 26.734 35.9046 25.5813C35.9676 25.4302 37.4702 21.8242 37.4702 18.4702C37.4702 8.28553 29.1847 0 19 0ZM33.9011 24.7382C33.4676 25.7714 32.5756 27.437 31.9552 28.3779L19.2901 47.5674C19.0402 47.9465 18.9609 47.9465 18.711 47.5674L6.04582 28.3779C5.42544 27.437 4.53343 25.7703 4.09993 24.7371C4.08146 24.6925 2.70271 21.3733 2.70271 18.4702C2.70271 9.48392 10.0137 2.17297 19 2.17297C27.9863 2.17297 35.2972 9.48392 35.2972 18.4702C35.2972 21.3777 33.9152 24.7056 33.9011 24.7382Z" fill="white"/>
<path d="M19 8.69299C13.6078 8.69299 9.22163 13.0802 9.22163 18.4713C9.22163 23.8625 13.6078 28.2497 19 28.2497C24.3922 28.2497 28.7784 23.8625 28.7784 18.4713C28.7784 13.0802 24.3922 8.69299 19 8.69299ZM19 26.0767C14.8073 26.0767 11.3946 22.6652 11.3946 18.4713C11.3946 14.2775 14.8073 10.866 19 10.866C23.1928 10.866 26.6054 14.2775 26.6054 18.4713C26.6054 22.6652 23.1928 26.0767 19 26.0767Z" fill="white"/>
</svg>
