<svg width="22" height="22" viewBox="0 0 22 22" fill="none" xmlns="http://www.w3.org/2000/svg">
<path d="M0.335724 22H6.03213V6.89868H0.335724V22ZM1.62479 8.19823H4.74307V20.7004H1.62479V8.19823Z" fill="white"/>
<path d="M3.18394 0C1.42828 0 0 1.43994 0 3.20983C0 4.97973 1.42828 6.41971 3.18394 6.41971C4.9396 6.41971 6.36793 4.97977 6.36793 3.20983C6.36793 1.4399 4.93956 0 3.18394 0ZM1.28906 3.20983C1.28906 2.15651 2.13907 1.29955 3.18394 1.29955C4.22881 1.29955 5.07886 2.15647 5.07886 3.20983C5.07886 4.2632 4.22881 5.12016 3.18394 5.12016C2.13907 5.12016 1.28906 4.26316 1.28906 3.20983Z" fill="white"/>
<path d="M21.9862 11.6407C21.7835 8.70134 19.3514 6.43628 16.3363 6.43628C14.9876 6.43628 13.7145 6.90897 12.7114 7.74769V6.89866H7.25305V21.9999H12.9495V13.7407C12.9495 12.8099 13.7006 12.0526 14.624 12.0526C15.5473 12.0526 16.2984 12.8099 16.2984 13.7411L16.3039 22H22V11.6546L21.9862 11.6407ZM11.6604 20.7005H8.54211V8.19825H11.4223V10.0543L12.4537 10.0603L12.6454 9.76034C13.4553 8.49264 14.8351 7.73587 16.3363 7.73587C18.7355 7.73587 20.6565 9.58131 20.7096 11.9371L20.7109 20.7005H17.5921L17.5875 13.7407C17.5875 12.0933 16.2581 10.7531 14.624 10.7531C12.9899 10.7531 11.6604 12.0933 11.6604 13.7407V20.7005Z" fill="white"/>
</svg>
