<svg width="245" height="68" viewBox="0 0 245 68" fill="none" xmlns="http://www.w3.org/2000/svg">
<path d="M29.25 0L0 66.9955H77.25L48 0H29.25Z" fill="#014F86"/>
<path d="M48.2711 54.1164L43.0959 48.5002V41.6683H34.0721V48.5024L28.9544 54.1164H48.2711Z" fill="#EFF8FA"/>
<path d="M47.3299 54.0153L42.6904 52.6629L38.5856 57.3362L31.4884 49.2552L23.944 51.4538C20.9993 52.312 18.9764 54.9945 18.9764 58.0417V65.2696C18.9764 66.6115 20.0721 67.6992 21.4236 67.6992H24.7426L25.3407 67.2754H25.6518L26.25 67.6992H50.9177L51.7957 67.0772H52.5239V60.9041C52.524 57.7179 50.409 54.9129 47.3299 54.0153Z" fill="#EFF8FA"/>
<path d="M53.2277 51.4535L45.6841 49.2546L42.1772 53.2472L46.8636 54.6132C49.8081 55.4715 51.8307 58.154 51.8307 61.2009V67.0771H52.4254V67.6992H55.7476C57.0992 67.6992 58.1948 68.0576 58.1948 66.7157V58.0413C58.1948 54.9943 56.1722 52.3118 53.2277 51.4535Z" fill="#EFF8FA"/>
<path d="M26.2501 67.6992V63.725C26.2501 63.3117 25.9127 62.9767 25.4964 62.9767C25.0801 62.9767 24.7427 63.3117 24.7427 63.725V67.6992H26.2501Z" fill="#EFF8FA"/>
<path d="M52.4254 67.6992V63.725C52.4254 63.3117 52.0879 62.9767 51.6716 62.9767C51.2554 62.9767 50.9179 63.3117 50.9179 63.725V67.6992H52.4254Z" fill="#EFF8FA"/>
<path d="M24.9888 32.75L24.216 31.904H22.5644L21.7916 32.75L20.7732 38.6847C20.6772 39.2449 21.1118 39.7562 21.6841 39.7562H25.0961C25.6684 39.7562 26.103 39.2449 26.007 38.6847L24.9888 32.75Z" fill="#EFF8FA"/>
<path d="M24.1439 31.3074V23.8029C24.1439 23.3896 23.8065 23.0546 23.3902 23.0546C22.9739 23.0546 22.6365 23.3896 22.6365 23.8029V31.3074H24.1439Z" fill="#EFF8FA"/>
<path d="M42.7617 23.2017H42.5955H34.5727H34.4065C31.3859 23.2017 28.9374 25.6328 28.9374 28.6319V28.7174V33.8696L29.8418 34.6608H48.2307V28.7174V28.6319C48.2308 25.6329 45.7822 23.2017 42.7617 23.2017Z" fill="#EFF8FA"/>
<path d="M42.7617 23.2017H42.5955H41.8874V34.6608H47.3958L48.2307 33.8696V28.7174V28.6319C48.2308 25.6329 45.7821 23.2017 42.7617 23.2017Z" fill="#EFF8FA"/>
<path d="M38.5856 45.6221C38.6766 45.6221 38.767 45.6206 38.8571 45.6176C41.015 44.2569 42.4807 41.911 42.6113 39.2163V29.7318H32.2345V32.2278C32.2345 33.1345 31.4942 33.8695 30.581 33.8695H28.939V36.5542C28.939 37.2402 29.499 37.7964 30.19 37.7964C30.408 37.7964 30.5854 37.966 30.5991 38.182C30.8629 42.3346 34.3367 45.6221 38.5856 45.6221Z" fill="#EFF8FA"/>
<path d="M46.5903 33.8695C45.6771 33.8695 44.9368 33.1345 44.9368 32.2278V29.7318H41.8874V38.9722C41.749 41.8269 40.0945 44.2854 37.7063 45.573C37.9953 45.6044 38.2882 45.6221 38.5856 45.6221C42.8345 45.6221 46.3083 42.3346 46.5721 38.182C46.5859 37.966 46.7632 37.7964 46.9812 37.7964C47.6721 37.7964 48.2323 37.2403 48.2323 36.5542V33.8695H46.5903Z" fill="#EFF8FA"/>
<path d="M42.6114 26.5449V24.695C41.6934 24.6878 40.9513 23.9474 40.9513 23.0342V19.7097L40.247 18.5893L38.8429 18.1458C38.6745 18.0927 38.4938 18.0927 38.3254 18.1458L23.0391 22.9734C22.1864 23.2426 22.2724 24.4676 23.1546 24.6167L38.5842 27.2259L42.6114 26.5449Z" fill="#EFF8FA"/>
<path d="M42.6113 24.7236L40.3881 24.4506C39.1899 24.3034 37.9781 24.3034 36.78 24.4507L28.3191 25.4902V29.2337C28.3191 29.6394 28.6503 29.9682 29.0589 29.9682H42.6113V24.7236Z" fill="#EFF8FA"/>
<path d="M54.129 22.9733L40.2468 18.5893V22.9817C40.2468 23.884 40.9802 24.6157 41.8872 24.6228V26.6674L54.0135 24.6168C54.8957 24.4674 54.9817 23.2426 54.129 22.9733Z" fill="#EFF8FA"/>
<path d="M41.8876 24.6347V29.9682H48.1126C48.5211 29.9682 48.8523 29.6393 48.8523 29.2337V25.4901L41.8876 24.6347Z" fill="#EFF8FA"/>
<path d="M24.9888 32.7501H21.7917V30.6664C21.7917 30.2237 22.1532 29.8648 22.5991 29.8648H24.1813C24.6272 29.8648 24.9887 30.2237 24.9887 30.6664V32.7501H24.9888Z" fill="#EFF8FA"/>
<path d="M43.0957 45.9992C43.0957 48.9059 42.2459 51.75 40.6495 54.1864L38.5855 57.3364L50.1011 50.5423L43.0957 45.9992Z" fill="#EFF8FA"/>
<path d="M34.0753 45.9992C34.0753 48.9059 34.9252 51.75 36.5216 54.1864L38.5856 57.3364L27.07 50.5423L34.0753 45.9992Z" fill="#EFF8FA"/>
<path d="M42.4294 50.4008C41.2451 50.6598 39.9473 50.8033 38.5855 50.8033C37.2238 50.8033 35.9259 50.6598 34.7416 50.4008C35.1528 51.7319 35.7487 53.0072 36.5214 54.1864L38.5855 57.3364L40.6495 54.1864C41.4222 53.0072 42.0182 51.7319 42.4294 50.4008Z" fill="#EFF8FA"/>
<path d="M82.4022 0.0932617H101.41V67.039H82.4022V0.0932617Z" fill="#014F86"/>
<path d="M119.642 58.1121C117.709 58.1121 116.202 57.5741 115.122 56.4982C114.042 55.409 113.502 53.8549 113.502 51.8359V43.9658H116.102V51.7363C116.102 54.4726 117.289 55.8407 119.662 55.8407C122.022 55.8407 123.202 54.4726 123.202 51.7363V43.9658H125.762V51.8359C125.762 53.8549 125.222 55.409 124.142 56.4982C123.076 57.5741 121.576 58.1121 119.642 58.1121Z" fill="#014F86"/>
<path d="M142.043 43.9658V57.9128H139.903L132.183 48.4687V57.9128H129.603V43.9658H131.743L139.463 53.4099V43.9658H142.043Z" fill="#014F86"/>
<path d="M145.995 43.9658H148.595V57.9128H145.995V43.9658Z" fill="#014F86"/>
<path d="M165.284 43.9658L159.184 57.9128H156.624L150.504 43.9658H153.324L157.984 54.7249L162.684 43.9658H165.284Z" fill="#014F86"/>
<path d="M177.461 55.7411V57.9128H166.961V43.9658H177.181V46.1376H169.561V49.7638H176.321V51.8957H169.561V55.7411H177.461Z" fill="#014F86"/>
<path d="M189.72 57.9128L186.86 53.8284C186.74 53.8416 186.56 53.8483 186.32 53.8483H183.16V57.9128H180.56V43.9658H186.32C187.533 43.9658 188.586 44.1651 189.48 44.5635C190.386 44.962 191.08 45.5332 191.56 46.277C192.04 47.0209 192.28 47.9042 192.28 48.927C192.28 49.9763 192.02 50.8796 191.5 51.6367C190.993 52.3938 190.26 52.9583 189.3 53.3302L192.52 57.9128H189.72ZM189.66 48.927C189.66 48.037 189.366 47.3529 188.78 46.8748C188.193 46.3966 187.333 46.1575 186.2 46.1575H183.16V51.7164H186.2C187.333 51.7164 188.193 51.4773 188.78 50.9991C189.366 50.5076 189.66 49.8169 189.66 48.927Z" fill="#014F86"/>
<path d="M199.729 58.1121C198.649 58.1121 197.602 57.9593 196.589 57.6538C195.589 57.3483 194.795 56.9432 194.209 56.4384L195.109 54.4261C195.682 54.8777 196.382 55.2496 197.209 55.5418C198.049 55.8208 198.889 55.9603 199.729 55.9603C200.769 55.9603 201.542 55.7942 202.049 55.4621C202.569 55.1301 202.829 54.6917 202.829 54.1471C202.829 53.7487 202.682 53.4232 202.389 53.1708C202.109 52.9052 201.749 52.6993 201.309 52.5532C200.869 52.4071 200.269 52.241 199.509 52.0551C198.442 51.8027 197.575 51.5503 196.909 51.298C196.255 51.0456 195.689 50.6537 195.209 50.1224C194.742 49.5778 194.509 48.8473 194.509 47.9308C194.509 47.1603 194.715 46.463 195.129 45.8387C195.555 45.2011 196.189 44.6964 197.029 44.3245C197.882 43.9525 198.922 43.7666 200.149 43.7666C201.002 43.7666 201.842 43.8728 202.669 44.0854C203.495 44.2979 204.209 44.6034 204.809 45.0019L203.989 47.0142C203.375 46.6556 202.735 46.3833 202.069 46.1973C201.402 46.0114 200.755 45.9184 200.129 45.9184C199.102 45.9184 198.335 46.0911 197.829 46.4364C197.335 46.7818 197.089 47.24 197.089 47.8112C197.089 48.2097 197.229 48.5351 197.509 48.7875C197.802 49.0399 198.169 49.2391 198.609 49.3852C199.049 49.5313 199.649 49.6974 200.409 49.8833C201.449 50.1224 202.302 50.3748 202.969 50.6405C203.635 50.8928 204.202 51.2847 204.669 51.816C205.149 52.3473 205.389 53.0646 205.389 53.9678C205.389 54.7382 205.175 55.4356 204.749 56.0599C204.335 56.6842 203.702 57.1823 202.849 57.5542C201.995 57.9261 200.955 58.1121 199.729 58.1121Z" fill="#014F86"/>
<path d="M208.167 43.9658H210.767V57.9128H208.167V43.9658Z" fill="#014F86"/>
<path d="M217.593 46.1575H212.953V43.9658H224.833V46.1575H220.193V57.9128H217.593V46.1575Z" fill="#014F86"/>
<path d="M232.829 52.9915V57.9128H230.229V53.0314L224.729 43.9658H227.509L231.609 50.76L235.749 43.9658H238.309L232.829 52.9915Z" fill="#014F86"/>
<path d="M133.41 28.3149H120.81L118.326 34.1248H113.502L124.842 9.0202H129.45L140.826 34.1248H135.93L133.41 28.3149ZM131.862 24.6568L127.11 13.6825L122.394 24.6568H131.862Z" fill="#F08605"/>
<path d="M168.223 14.7584C170.647 14.7584 172.567 15.4637 173.983 16.8744C175.399 18.2611 176.107 20.3532 176.107 23.1505V34.1248H171.607V23.7243C171.607 22.0507 171.235 20.7955 170.491 19.9587C169.747 19.0979 168.679 18.6676 167.287 18.6676C165.775 18.6676 164.563 19.1697 163.651 20.1738C162.739 21.1541 162.283 22.5648 162.283 24.4058V34.1248H157.783V23.7243C157.783 22.0507 157.411 20.7955 156.667 19.9587C155.923 19.0979 154.855 18.6676 153.463 18.6676C151.927 18.6676 150.703 19.1577 149.791 20.138C148.903 21.1182 148.459 22.5408 148.459 24.4058V34.1248H143.959V14.9736H148.243V17.4123C148.963 16.5516 149.863 15.8941 150.943 15.4398C152.023 14.9855 153.223 14.7584 154.543 14.7584C155.983 14.7584 157.255 15.0334 158.359 15.5833C159.487 16.1093 160.375 16.8983 161.023 17.9503C161.815 16.9461 162.835 16.169 164.083 15.6191C165.331 15.0453 166.711 14.7584 168.223 14.7584Z" fill="#F08605"/>
<path d="M192.959 9.0202H197.639V34.1248H192.959V9.0202Z" fill="#F08605"/>
<path d="M215.291 14.7584C217.715 14.7584 219.659 15.4637 221.123 16.8744C222.587 18.285 223.319 20.3771 223.319 23.1505V34.1248H218.819V23.7243C218.819 22.0507 218.423 20.7955 217.631 19.9587C216.839 19.0979 215.711 18.6676 214.247 18.6676C212.591 18.6676 211.283 19.1697 210.323 20.1738C209.363 21.1541 208.883 22.5767 208.883 24.4416V34.1248H204.383V14.9736H208.667V17.4482C209.411 16.5635 210.347 15.8941 211.475 15.4398C212.603 14.9855 213.875 14.7584 215.291 14.7584Z" fill="#F08605"/>
<path d="M18.9958 67.9915V63.5085H21.9958V67.9915H18.9958Z" fill="#EFF8FA"/>
<path d="M56.2448 68V63.517H58.276V68H56.2448Z" fill="#EFF8FA"/>
</svg>
