<svg width="245" height="70" viewBox="0 0 245 70" fill="none" xmlns="http://www.w3.org/2000/svg">
<path d="M29.25 0.907959L0 68.158H77.25L48 0.907959H29.25Z" fill="white"/>
<path d="M48.2711 55.23L43.0959 49.5925V42.7346H34.0721V49.5946L28.9544 55.23H48.2711Z" fill="#F08605"/>
<path d="M47.3299 55.1285L42.6904 53.771L38.5856 58.462L31.4884 50.3503L23.944 52.5573C20.9993 53.4187 18.9764 56.1114 18.9764 59.1702V66.4256C18.9764 67.7725 20.0721 68.8644 21.4236 68.8644H24.7426L25.3407 68.439H25.6518L26.25 68.8644H50.9177L51.7957 68.24H52.5239V62.0434C52.524 58.8451 50.409 56.0294 47.3299 55.1285Z" fill="#F08605"/>
<path d="M53.2277 52.5571L45.6841 50.3499L42.1772 54.3576L46.8636 55.7288C49.8081 56.5904 51.8307 59.283 51.8307 62.3415V68.2401H52.4254V68.8645H55.7476C57.0992 68.8645 58.1948 69.2242 58.1948 67.8773V59.1699C58.1948 56.1113 56.1722 53.4186 53.2277 52.5571Z" fill="#F08605"/>
<path d="M26.2501 68.8642V64.875C26.2501 64.4601 25.9127 64.1238 25.4964 64.1238C25.0801 64.1238 24.7427 64.4601 24.7427 64.875V68.8642H26.2501Z" fill="#F08605"/>
<path d="M52.4254 68.8642V64.875C52.4254 64.4601 52.0879 64.1238 51.6716 64.1238C51.2554 64.1238 50.9179 64.4601 50.9179 64.875V68.8642H52.4254Z" fill="#F08605"/>
<path d="M24.9888 33.7823L24.216 32.9331H22.5644L21.7916 33.7823L20.7732 39.7396C20.6772 40.3019 21.1118 40.8152 21.6841 40.8152H25.0961C25.6684 40.8152 26.103 40.3019 26.007 39.7396L24.9888 33.7823Z" fill="#F08605"/>
<path d="M24.1439 32.3343V24.8012C24.1439 24.3864 23.8065 24.05 23.3902 24.05C22.9739 24.05 22.6365 24.3864 22.6365 24.8012V32.3343H24.1439Z" fill="#F08605"/>
<path d="M42.7617 24.1978H42.5955H34.5727H34.4065C31.3859 24.1978 28.9374 26.6381 28.9374 29.6486V29.7344V34.9062L29.8418 35.7004H48.2307V29.7344V29.6486C48.2308 26.6382 45.7822 24.1978 42.7617 24.1978Z" fill="#F08605"/>
<path d="M42.7617 24.1978H42.5955H41.8874V35.7004H47.3958L48.2307 34.9062V29.7344V29.6486C48.2308 26.6382 45.7821 24.1978 42.7617 24.1978Z" fill="#F08605"/>
<path d="M38.5856 46.7034C38.6766 46.7034 38.767 46.7018 38.8571 46.6988C41.015 45.3329 42.4807 42.9781 42.6113 40.2732V30.7527H32.2345V33.2581C32.2345 34.1683 31.4942 34.9061 30.581 34.9061H28.939V37.601C28.939 38.2896 29.499 38.8479 30.19 38.8479C30.408 38.8479 30.5854 39.0181 30.5991 39.2349C30.8629 43.4034 34.3367 46.7034 38.5856 46.7034Z" fill="#F08605"/>
<path d="M46.5903 34.9061C45.6771 34.9061 44.9368 34.1683 44.9368 33.2581V30.7527H41.8874V40.0281C41.749 42.8937 40.0945 45.3616 37.7063 46.6541C37.9953 46.6856 38.2882 46.7034 38.5856 46.7034C42.8345 46.7034 46.3083 43.4034 46.5721 39.2349C46.5859 39.0181 46.7632 38.8479 46.9812 38.8479C47.6721 38.8479 48.2323 38.2897 48.2323 37.601V34.9061H46.5903Z" fill="#F08605"/>
<path d="M42.6114 27.5537V25.6968C41.6934 25.6896 40.9513 24.9464 40.9513 24.0297V20.6926L40.247 19.5679L38.8429 19.1228C38.6745 19.0694 38.4938 19.0694 38.3254 19.1228L23.0391 23.9687C22.1864 24.239 22.2724 25.4685 23.1546 25.6183L38.5842 28.2373L42.6114 27.5537Z" fill="#F08605"/>
<path d="M42.6113 25.7257L40.3881 25.4516C39.1899 25.3039 37.9781 25.3039 36.78 25.4517L28.3191 26.4951V30.2529C28.3191 30.6601 28.6503 30.9902 29.0589 30.9902H42.6113V25.7257Z" fill="#F08605"/>
<path d="M54.129 23.9686L40.2468 19.5679V23.977C40.2468 24.8828 40.9802 25.6172 41.8872 25.6243V27.6767L54.0135 25.6183C54.8957 25.4684 54.9817 24.2389 54.129 23.9686Z" fill="#F08605"/>
<path d="M41.8876 25.6362V30.99H48.1126C48.5211 30.99 48.8523 30.6599 48.8523 30.2527V26.4949L41.8876 25.6362Z" fill="#F08605"/>
<path d="M24.9888 33.7825H21.7917V31.6909C21.7917 31.2465 22.1532 30.8862 22.5991 30.8862H24.1813C24.6272 30.8862 24.9887 31.2465 24.9887 31.6909V33.7825H24.9888Z" fill="#F08605"/>
<path d="M43.0957 47.082C43.0957 49.9997 42.2459 52.8547 40.6495 55.3003L38.5855 58.4622L50.1011 51.6423L43.0957 47.082Z" fill="#F08605"/>
<path d="M34.0753 47.082C34.0753 49.9997 34.9252 52.8547 36.5216 55.3003L38.5856 58.4622L27.07 51.6423L34.0753 47.082Z" fill="#F08605"/>
<path d="M42.4294 51.5002C41.2451 51.7601 39.9473 51.9042 38.5855 51.9042C37.2238 51.9042 35.9259 51.7601 34.7416 51.5002C35.1528 52.8364 35.7487 54.1165 36.5214 55.3002L38.5855 58.4621L40.6495 55.3002C41.4222 54.1165 42.0182 52.8364 42.4294 51.5002Z" fill="#F08605"/>
<path d="M82.4022 1.00159H101.41V68.2016H82.4022V1.00159Z" fill="white"/>
<path d="M119.642 59.2408C117.709 59.2408 116.202 58.7008 115.122 57.6208C114.042 56.5275 113.502 54.9675 113.502 52.9408V45.0408H116.102V52.8408C116.102 55.5875 117.289 56.9608 119.662 56.9608C122.022 56.9608 123.202 55.5875 123.202 52.8408V45.0408H125.762V52.9408C125.762 54.9675 125.222 56.5275 124.142 57.6208C123.076 58.7008 121.576 59.2408 119.642 59.2408Z" fill="white"/>
<path d="M142.043 45.0408V59.0408H139.903L132.183 49.5608V59.0408H129.603V45.0408H131.743L139.463 54.5208V45.0408H142.043Z" fill="white"/>
<path d="M145.995 45.0408H148.595V59.0408H145.995V45.0408Z" fill="white"/>
<path d="M165.284 45.0408L159.184 59.0408H156.624L150.504 45.0408H153.324L157.984 55.8408L162.684 45.0408H165.284Z" fill="white"/>
<path d="M177.461 56.8608V59.0408H166.961V45.0408H177.181V47.2208H169.561V50.8608H176.321V53.0008H169.561V56.8608H177.461Z" fill="white"/>
<path d="M189.72 59.0408L186.86 54.9408C186.74 54.9542 186.56 54.9608 186.32 54.9608H183.16V59.0408H180.56V45.0408H186.32C187.533 45.0408 188.586 45.2408 189.48 45.6408C190.386 46.0408 191.08 46.6142 191.56 47.3608C192.04 48.1075 192.28 48.9942 192.28 50.0208C192.28 51.0742 192.02 51.9808 191.5 52.7408C190.993 53.5008 190.26 54.0675 189.3 54.4408L192.52 59.0408H189.72ZM189.66 50.0208C189.66 49.1275 189.366 48.4408 188.78 47.9608C188.193 47.4808 187.333 47.2408 186.2 47.2408H183.16V52.8208H186.2C187.333 52.8208 188.193 52.5808 188.78 52.1008C189.366 51.6075 189.66 50.9142 189.66 50.0208Z" fill="white"/>
<path d="M199.729 59.2408C198.649 59.2408 197.602 59.0875 196.589 58.7808C195.589 58.4742 194.795 58.0675 194.209 57.5608L195.109 55.5408C195.682 55.9942 196.382 56.3675 197.209 56.6608C198.049 56.9408 198.889 57.0808 199.729 57.0808C200.769 57.0808 201.542 56.9142 202.049 56.5808C202.569 56.2475 202.829 55.8075 202.829 55.2608C202.829 54.8608 202.682 54.5342 202.389 54.2808C202.109 54.0142 201.749 53.8075 201.309 53.6608C200.869 53.5142 200.269 53.3475 199.509 53.1608C198.442 52.9075 197.575 52.6542 196.909 52.4008C196.255 52.1475 195.689 51.7542 195.209 51.2208C194.742 50.6742 194.509 49.9408 194.509 49.0208C194.509 48.2475 194.715 47.5475 195.129 46.9208C195.555 46.2808 196.189 45.7742 197.029 45.4008C197.882 45.0275 198.922 44.8408 200.149 44.8408C201.002 44.8408 201.842 44.9475 202.669 45.1608C203.495 45.3742 204.209 45.6808 204.809 46.0808L203.989 48.1008C203.375 47.7408 202.735 47.4675 202.069 47.2808C201.402 47.0942 200.755 47.0008 200.129 47.0008C199.102 47.0008 198.335 47.1742 197.829 47.5208C197.335 47.8675 197.089 48.3275 197.089 48.9008C197.089 49.3008 197.229 49.6275 197.509 49.8808C197.802 50.1342 198.169 50.3342 198.609 50.4808C199.049 50.6275 199.649 50.7942 200.409 50.9808C201.449 51.2208 202.302 51.4742 202.969 51.7408C203.635 51.9942 204.202 52.3875 204.669 52.9208C205.149 53.4542 205.389 54.1742 205.389 55.0808C205.389 55.8542 205.175 56.5542 204.749 57.1808C204.335 57.8075 203.702 58.3075 202.849 58.6808C201.995 59.0542 200.955 59.2408 199.729 59.2408Z" fill="white"/>
<path d="M208.167 45.0408H210.767V59.0408H208.167V45.0408Z" fill="white"/>
<path d="M217.593 47.2408H212.953V45.0408H224.833V47.2408H220.193V59.0408H217.593V47.2408Z" fill="white"/>
<path d="M232.829 54.1008V59.0408H230.229V54.1408L224.729 45.0408H227.509L231.609 51.8608L235.749 45.0408H238.309L232.829 54.1008Z" fill="white"/>
<path d="M133.41 29.3304H120.81L118.326 35.1624H113.502L124.842 9.9624H129.45L140.826 35.1624H135.93L133.41 29.3304ZM131.862 25.6584L127.11 14.6424L122.394 25.6584H131.862Z" fill="#F08605"/>
<path d="M168.223 15.7224C170.647 15.7224 172.567 16.4304 173.983 17.8464C175.399 19.2384 176.107 21.3384 176.107 24.1464V35.1624H171.607V24.7224C171.607 23.0424 171.235 21.7824 170.491 20.9424C169.747 20.0784 168.679 19.6464 167.287 19.6464C165.775 19.6464 164.563 20.1504 163.651 21.1584C162.739 22.1424 162.283 23.5584 162.283 25.4064V35.1624H157.783V24.7224C157.783 23.0424 157.411 21.7824 156.667 20.9424C155.923 20.0784 154.855 19.6464 153.463 19.6464C151.927 19.6464 150.703 20.1384 149.791 21.1224C148.903 22.1064 148.459 23.5344 148.459 25.4064V35.1624H143.959V15.9384H148.243V18.3864C148.963 17.5224 149.863 16.8624 150.943 16.4064C152.023 15.9504 153.223 15.7224 154.543 15.7224C155.983 15.7224 157.255 15.9984 158.359 16.5504C159.487 17.0784 160.375 17.8704 161.023 18.9264C161.815 17.9184 162.835 17.1384 164.083 16.5864C165.331 16.0104 166.711 15.7224 168.223 15.7224Z" fill="#F08605"/>
<path d="M192.959 9.9624H197.639V35.1624H192.959V9.9624Z" fill="#F08605"/>
<path d="M215.291 15.7224C217.715 15.7224 219.659 16.4304 221.123 17.8464C222.587 19.2624 223.319 21.3624 223.319 24.1464V35.1624H218.819V24.7224C218.819 23.0424 218.423 21.7824 217.631 20.9424C216.839 20.0784 215.711 19.6464 214.247 19.6464C212.591 19.6464 211.283 20.1504 210.323 21.1584C209.363 22.1424 208.883 23.5704 208.883 25.4424V35.1624H204.383V15.9384H208.667V18.4224C209.411 17.5344 210.347 16.8624 211.475 16.4064C212.603 15.9504 213.875 15.7224 215.291 15.7224Z" fill="#F08605"/>
<path d="M18.9958 69.1577V64.6577H21.9958V69.1577H18.9958Z" fill="#F08605"/>
<path d="M56.2448 69.1663V64.6663H58.276V69.1663H56.2448Z" fill="#F08605"/>
</svg>
