<svg width="50" height="36" viewBox="0 0 50 36" fill="none" xmlns="http://www.w3.org/2000/svg">
<path d="M45.6055 0.445312H4.39453C1.9665 0.445312 0 2.42402 0 4.83984V31.207C0 33.6372 1.98096 35.6016 4.39453 35.6016H45.6055C48.0132 35.6016 50 33.6455 50 31.207V4.83984C50 2.42832 48.0413 0.445312 45.6055 0.445312ZM44.99 3.375C44.0922 4.26807 28.6409 19.638 28.1074 20.1687C27.2773 20.9987 26.1738 21.4558 25 21.4558C23.8262 21.4558 22.7227 20.9986 21.8898 20.1659C21.5311 19.809 6.25029 4.60879 5.00996 3.375H44.99ZM2.92969 30.6107V5.43799L15.5896 18.0312L2.92969 30.6107ZM5.01182 32.6719L17.6668 20.0974L19.821 22.2402C21.2044 23.6236 23.0437 24.3855 25 24.3855C26.9563 24.3855 28.7956 23.6236 30.1763 22.243L32.3332 20.0974L44.9882 32.6719H5.01182ZM47.0703 30.6107L34.4104 18.0312L47.0703 5.43799V30.6107Z" fill="white"/>
</svg>
