<svg width="50" height="48" viewBox="0 0 50 48" fill="none" xmlns="http://www.w3.org/2000/svg">
<path d="M42.7083 14.5835H17.7083C13.6875 14.5835 10.4167 11.3126 10.4167 7.29179C10.4167 3.27096 13.6875 0.00012207 17.7083 0.00012207H42.7083C46.7292 0.00012207 50 3.27096 50 7.29179C50 11.3126 46.7292 14.5835 42.7083 14.5835ZM17.7083 2.08346C14.8375 2.08346 12.5 4.42096 12.5 7.29179C12.5 10.1626 14.8375 12.5001 17.7083 12.5001H42.7083C45.5792 12.5001 47.9167 10.1626 47.9167 7.29179C47.9167 4.42096 45.5792 2.08346 42.7083 2.08346H17.7083Z" fill="#F08605"/>
<path d="M19.7917 10.4168C18.0688 10.4168 16.6667 9.01473 16.6667 7.29181C16.6667 5.56889 18.0688 4.16681 19.7917 4.16681C21.5146 4.16681 22.9167 5.56889 22.9167 7.29181C22.9167 9.01473 21.5146 10.4168 19.7917 10.4168ZM19.7917 6.25014C19.2167 6.25014 18.75 6.71681 18.75 7.29181C18.75 7.86681 19.2167 8.33348 19.7917 8.33348C20.3667 8.33348 20.8333 7.86681 20.8333 7.29181C20.8333 6.71681 20.3667 6.25014 19.7917 6.25014Z" fill="#F08605"/>
<path d="M30.2083 10.4168C28.4854 10.4168 27.0833 9.01473 27.0833 7.29181C27.0833 5.56889 28.4854 4.16681 30.2083 4.16681C31.9313 4.16681 33.3333 5.56889 33.3333 7.29181C33.3333 9.01473 31.9313 10.4168 30.2083 10.4168ZM30.2083 6.25014C29.6333 6.25014 29.1667 6.71681 29.1667 7.29181C29.1667 7.86681 29.6333 8.33348 30.2083 8.33348C30.7833 8.33348 31.25 7.86681 31.25 7.29181C31.25 6.71681 30.7833 6.25014 30.2083 6.25014Z" fill="#F08605"/>
<path d="M42.7083 31.2502H17.7083C13.6875 31.2502 10.4167 27.9794 10.4167 23.9585C10.4167 19.9377 13.6875 16.6669 17.7083 16.6669H42.7083C46.7292 16.6669 50 19.9377 50 23.9585C50 27.9794 46.7292 31.2502 42.7083 31.2502ZM17.7083 18.7502C14.8375 18.7502 12.5 21.0877 12.5 23.9585C12.5 26.8294 14.8375 29.1669 17.7083 29.1669H42.7083C45.5792 29.1669 47.9167 26.8294 47.9167 23.9585C47.9167 21.0877 45.5792 18.7502 42.7083 18.7502H17.7083Z" fill="#F08605"/>
<path d="M19.7917 27.0836C18.0688 27.0836 16.6667 25.6815 16.6667 23.9586C16.6667 22.2356 18.0688 20.8336 19.7917 20.8336C21.5146 20.8336 22.9167 22.2356 22.9167 23.9586C22.9167 25.6815 21.5146 27.0836 19.7917 27.0836ZM19.7917 22.9169C19.2167 22.9169 18.75 23.3836 18.75 23.9586C18.75 24.5336 19.2167 25.0002 19.7917 25.0002C20.3667 25.0002 20.8333 24.5336 20.8333 23.9586C20.8333 23.3836 20.3667 22.9169 19.7917 22.9169Z" fill="#F08605"/>
<path d="M30.2083 27.0836C28.4854 27.0836 27.0833 25.6815 27.0833 23.9586C27.0833 22.2356 28.4854 20.8336 30.2083 20.8336C31.9313 20.8336 33.3333 22.2356 33.3333 23.9586C33.3333 25.6815 31.9313 27.0836 30.2083 27.0836ZM30.2083 22.9169C29.6333 22.9169 29.1667 23.3836 29.1667 23.9586C29.1667 24.5336 29.6333 25.0002 30.2083 25.0002C30.7833 25.0002 31.25 24.5336 31.25 23.9586C31.25 23.3836 30.7833 22.9169 30.2083 22.9169Z" fill="#F08605"/>
<path d="M42.7083 47.9169H17.7083C13.6875 47.9169 10.4167 44.6461 10.4167 40.6252C10.4167 36.6044 13.6875 33.3336 17.7083 33.3336H42.7083C46.7292 33.3336 50 36.6044 50 40.6252C50 44.6461 46.7292 47.9169 42.7083 47.9169ZM17.7083 35.4169C14.8375 35.4169 12.5 37.7544 12.5 40.6252C12.5 43.4961 14.8375 45.8336 17.7083 45.8336H42.7083C45.5792 45.8336 47.9167 43.4961 47.9167 40.6252C47.9167 37.7544 45.5792 35.4169 42.7083 35.4169H17.7083Z" fill="#F08605"/>
<path d="M19.7917 43.7501C18.0688 43.7501 16.6667 42.348 16.6667 40.6251C16.6667 38.9022 18.0688 37.5001 19.7917 37.5001C21.5146 37.5001 22.9167 38.9022 22.9167 40.6251C22.9167 42.348 21.5146 43.7501 19.7917 43.7501ZM19.7917 39.5835C19.2167 39.5835 18.75 40.0501 18.75 40.6251C18.75 41.2001 19.2167 41.6668 19.7917 41.6668C20.3667 41.6668 20.8333 41.2001 20.8333 40.6251C20.8333 40.0501 20.3667 39.5835 19.7917 39.5835Z" fill="#F08605"/>
<path d="M30.2083 43.7501C28.4854 43.7501 27.0833 42.348 27.0833 40.6251C27.0833 38.9022 28.4854 37.5001 30.2083 37.5001C31.9313 37.5001 33.3333 38.9022 33.3333 40.6251C33.3333 42.348 31.9313 43.7501 30.2083 43.7501ZM30.2083 39.5835C29.6333 39.5835 29.1667 40.0501 29.1667 40.6251C29.1667 41.2001 29.6333 41.6668 30.2083 41.6668C30.7833 41.6668 31.25 41.2001 31.25 40.6251C31.25 40.0501 30.7833 39.5835 30.2083 39.5835Z" fill="#F08605"/>
<path d="M11.4583 41.6668H5.20833C2.3375 41.6668 0 39.3293 0 36.4585V11.4585C0 8.58762 2.3375 6.25012 5.20833 6.25012H11.4583V8.33346H5.20833C3.48542 8.33346 2.08333 9.73554 2.08333 11.4585V36.4585C2.08333 38.1814 3.48542 39.5835 5.20833 39.5835H11.4583V41.6668Z" fill="#F08605"/>
<path d="M1.04167 22.9169H11.4583V25.0002H1.04167V22.9169Z" fill="#F08605"/>
</svg>
