<svg width="50" height="51" viewBox="0 0 50 51" fill="none" xmlns="http://www.w3.org/2000/svg">
<path d="M45.1171 32.7527C44.5781 32.7527 44.1406 33.1902 44.1406 33.7292C44.1406 34.2683 44.5781 34.7058 45.1171 34.7058C45.6562 34.7058 46.0937 34.2683 46.0937 33.7292C46.0937 33.1902 45.6562 32.7527 45.1171 32.7527Z" fill="#F08605"/>
<path d="M40.625 22.9871C40.0859 22.9871 39.6484 23.4246 39.6484 23.9637C39.6484 24.5027 40.0859 24.9402 40.625 24.9402C41.164 24.9402 41.6015 24.5027 41.6015 23.9637C41.6015 23.4246 41.164 22.9871 40.625 22.9871Z" fill="#F08605"/>
<path d="M36.7187 17.1277C36.1797 17.1277 35.7422 17.5652 35.7422 18.1043C35.7422 18.6434 36.1797 19.0809 36.7187 19.0809C37.2578 19.0809 37.6953 18.6434 37.6953 18.1043C37.6953 17.5652 37.2578 17.1277 36.7187 17.1277Z" fill="#F08605"/>
<path d="M27.9297 32.7527C25.7758 32.7527 24.0235 34.505 24.0235 36.6589C24.0235 38.8128 25.7758 40.5652 27.9297 40.5652C30.0836 40.5652 31.8359 38.8128 31.8359 36.6589C31.8359 34.505 30.0836 32.7527 27.9297 32.7527ZM27.9297 38.612C26.8528 38.612 25.9766 37.7359 25.9766 36.6589C25.9766 35.582 26.8528 34.7058 27.9297 34.7058C29.0067 34.7058 29.8828 35.582 29.8828 36.6589C29.8828 37.7359 29.0067 38.612 27.9297 38.612Z" fill="#F08605"/>
<path d="M37.6953 32.7527C35.5414 32.7527 33.7891 34.505 33.7891 36.6589C33.7891 38.8128 35.5414 40.5652 37.6953 40.5652C39.8492 40.5652 41.6015 38.8128 41.6015 36.6589C41.6015 34.505 39.8492 32.7527 37.6953 32.7527ZM37.6953 38.612C36.6183 38.612 35.7422 37.7359 35.7422 36.6589C35.7422 35.582 36.6183 34.7058 37.6953 34.7058C38.7722 34.7058 39.6484 35.582 39.6484 36.6589C39.6484 37.7359 38.7722 38.612 37.6953 38.612Z" fill="#F08605"/>
<path d="M18.1641 32.7527C16.0102 32.7527 14.2579 34.505 14.2579 36.6589C14.2579 38.8128 16.0102 40.5652 18.1641 40.5652C20.318 40.5652 22.0704 38.8128 22.0704 36.6589C22.0704 34.505 20.318 32.7527 18.1641 32.7527ZM18.1641 38.612C17.0872 38.612 16.211 37.7359 16.211 36.6589C16.211 35.582 17.0872 34.7058 18.1641 34.7058C19.2411 34.7058 20.1172 35.582 20.1172 36.6589C20.1172 37.7359 19.2411 38.612 18.1641 38.612Z" fill="#F08605"/>
<path d="M41.3944 27.2937L37.6806 27.4429C37.4593 23.8719 34.4852 21.0339 30.8594 21.0339H29.8828V15.0962C30.195 15.1919 30.5233 15.2431 30.8594 15.2431C31.9735 15.2431 33.0074 14.6898 33.6251 13.763C33.8835 13.3752 34.2992 13.1529 34.7656 13.1529C35.232 13.1529 35.6476 13.3752 35.9061 13.763C36.5238 14.6898 37.5577 15.2431 38.6718 15.2431C39.786 15.2431 40.8199 14.6898 41.4375 13.763C41.6921 13.381 42.1733 13.1529 42.7245 13.1529C43.2758 13.1529 43.7569 13.381 44.0115 13.763C44.6292 14.6898 45.7179 15.2431 46.9237 15.2431C48.1296 15.2431 49.2183 14.6898 49.8359 13.763C50.1351 13.3143 50.0138 12.7079 49.5649 12.4089C49.1162 12.11 48.5099 12.2313 48.2107 12.6799C47.9562 13.0619 47.475 13.2901 46.9237 13.2901C46.3725 13.2901 45.8914 13.0619 45.6367 12.6799C45.0191 11.7532 43.9304 11.1998 42.7245 11.1998C41.5187 11.1998 40.43 11.7532 39.8123 12.6799C39.5539 13.0677 39.1382 13.2901 38.6718 13.2901C38.2054 13.2901 37.7898 13.0677 37.5313 12.6799C36.9136 11.7532 35.8797 11.1998 34.7656 11.1998C33.6514 11.1998 32.6175 11.7532 31.9999 12.6799C31.7415 13.0677 31.3258 13.2901 30.8594 13.2901C30.4809 13.2901 30.1376 13.1416 29.8828 12.8792V10.2918C29.8828 9.75337 30.3209 9.31528 30.8594 9.31528H34.7656C35.3048 9.31528 35.7421 8.87798 35.7421 8.33873V4.43249C35.7421 3.89324 35.3048 3.45593 34.7656 3.45593H30.8594C27.0899 3.45593 24.0234 6.52242 24.0234 10.2918V12.8792C23.7687 13.1416 23.4253 13.2901 23.0469 13.2901C22.5806 13.2901 22.1649 13.0677 21.9064 12.6799C21.2887 11.7532 20.2548 11.1998 19.1406 11.1998C18.0265 11.1998 16.9926 11.7532 16.3749 12.6799C16.1165 13.0677 15.7008 13.2901 15.2344 13.2901C14.768 13.2901 14.3524 13.0677 14.0939 12.6799C13.4762 11.7532 12.4423 11.1998 11.3282 11.1998C10.214 11.1998 9.18014 11.7532 8.56247 12.6799C8.30788 13.0619 7.82673 13.2901 7.27546 13.2901C6.72419 13.2901 6.24314 13.0619 5.98845 12.6799C5.37078 11.7532 4.28211 11.1998 3.07626 11.1998C1.8704 11.1998 0.781735 11.7532 0.164062 12.6799C-0.135058 13.1287 -0.0136718 13.7351 0.435057 14.0341C0.883981 14.3332 1.49013 14.2119 1.78925 13.7631C2.04384 13.3811 2.52499 13.153 3.07626 13.153C3.62752 13.153 4.10858 13.3811 4.36326 13.7631C4.98094 14.6899 6.0696 15.2432 7.27546 15.2432C8.48131 15.2432 9.56998 14.6899 10.1877 13.7631C10.4461 13.3753 10.8618 13.153 11.3282 13.153C11.7946 13.153 12.2102 13.3753 12.4687 13.7631C13.0864 14.6899 14.1203 15.2432 15.2344 15.2432C16.3486 15.2432 17.3825 14.6899 18.0001 13.7631C18.2585 13.3753 18.6742 13.153 19.1406 13.153C19.6071 13.153 20.0227 13.3753 20.2812 13.7631C20.8988 14.6899 21.9327 15.2432 23.0469 15.2432C23.3829 15.2432 23.7112 15.192 24.0234 15.0963V21.034H23.0469C19.2776 21.034 16.211 24.1006 16.211 27.8699V28.3057L11.67 28.4879C11.6657 28.4881 11.6615 28.4883 11.6572 28.4885C11.328 28.506 11.0006 28.5437 10.6778 28.5999L8.63639 25.3925C8.4571 25.1107 8.14635 24.9402 7.81247 24.9402H4.88279C4.59324 24.9402 4.31863 25.0686 4.13299 25.2911C3.94754 25.5134 3.8702 25.8065 3.92196 26.0914L5.07625 32.4411C5.01424 32.544 4.95535 32.6489 4.89793 32.7545C4.69031 32.7512 4.48426 32.8128 4.31151 32.9373C4.05702 33.1208 3.90623 33.4154 3.90623 33.7293V35.6824H1.95312V31.7761C1.95312 31.2369 1.51581 30.7996 0.976559 30.7996C0.437303 30.7996 0 31.2369 0 31.7761V41.5417C0 42.081 0.437303 42.5183 0.976559 42.5183C1.51581 42.5183 1.95312 42.081 1.95312 41.5417V37.6355H3.90623V39.5886C3.90623 39.9025 4.05702 40.1971 4.31151 40.3806C4.48006 40.5021 4.68025 40.5652 4.88289 40.5652C4.88807 40.5652 4.89334 40.5646 4.89861 40.5646C4.95584 40.6698 5.01453 40.7742 5.07625 40.8769L3.92196 47.2266C3.8702 47.5114 3.94754 47.8046 4.13299 48.0269C4.31854 48.2492 4.59324 48.3777 4.88279 48.3777H7.81247C8.14635 48.3777 8.4571 48.2072 8.63639 47.9255L10.6778 44.7181C11.0006 44.7742 11.328 44.8119 11.6572 44.8295C11.6612 44.8297 11.6651 44.8299 11.6691 44.83L40.808 46.024C45.4755 46.2666 49.9999 42.559 49.9999 37.8533V35.4645C49.9999 30.7774 46.0793 27.048 41.3944 27.2937ZM25.9766 10.2918C25.9766 7.59947 28.167 5.40905 30.8594 5.40905H33.789V7.36217H30.8594C29.2439 7.36217 27.9297 8.67642 27.9297 10.2918V11.3467C27.6175 11.251 27.2892 11.1998 26.9531 11.1998C26.6171 11.1998 26.2888 11.251 25.9766 11.3467V10.2918ZM25.9766 13.5638C26.2313 13.3014 26.5747 13.153 26.9531 13.153C27.3315 13.153 27.6749 13.3014 27.9297 13.5638V21.034H25.9766V13.5638ZM18.1641 27.8699C18.1641 25.1775 20.3545 22.9871 23.0469 22.9871C25.3375 22.9871 28.4223 22.9871 30.8594 22.9871C33.4344 22.9871 35.5489 24.9912 35.7284 27.5215L18.1641 28.2273V27.8699ZM7.27653 26.8933L8.74069 29.1938C8.00163 29.5253 7.31657 29.9638 6.70779 30.4957L6.05291 26.8933H7.27653ZM5.85945 35.0838L9.76568 36.3862V36.9317L5.85945 38.234V35.0838ZM7.27653 46.4245H6.05291L6.70779 42.8222C7.31657 43.3541 8.00163 43.7926 8.74069 44.124L7.27653 46.4245ZM48.0468 37.8533C48.0468 39.409 47.3599 40.9175 46.1124 42.101C46.1063 42.1069 46.0997 42.1121 46.0937 42.1179V37.6354C46.0937 37.0961 45.6564 36.6588 45.1171 36.6588C44.5779 36.6588 44.1405 37.0961 44.1405 37.6354V43.4272C43.1155 43.8974 41.9943 44.13 40.9047 44.0733C40.9009 44.0731 40.8972 44.0729 40.8934 44.0728L11.7551 42.8785C9.75055 42.7703 7.91208 41.7136 6.81599 39.9735L11.0511 38.5618C11.4499 38.4288 11.7188 38.0556 11.7188 37.6354V35.6823C11.7188 35.262 11.4499 34.8888 11.0511 34.7559L6.81609 33.344C6.84909 33.2916 6.88132 33.2386 6.91589 33.1873C7.98884 31.5916 9.7525 30.5477 11.7548 30.4391C12.1047 30.4252 34.2469 29.5379 41.4785 29.2451C41.4826 29.2449 41.4866 29.2447 41.4907 29.2445C45.0518 29.0563 48.0468 31.8855 48.0468 35.4645V37.8533Z" fill="#F08605"/>
<path d="M13.2813 17.1277C11.6659 17.1277 10.3516 18.442 10.3516 20.0574C10.3516 21.6728 11.6659 22.9871 13.2813 22.9871C14.8967 22.9871 16.211 21.6728 16.211 20.0574C16.211 18.442 14.8967 17.1277 13.2813 17.1277ZM13.2813 21.034C12.7428 21.034 12.3048 20.5959 12.3048 20.0574C12.3048 19.5189 12.7428 19.0809 13.2813 19.0809C13.8198 19.0809 14.2579 19.5189 14.2579 20.0574C14.2579 20.5959 13.8198 21.034 13.2813 21.034Z" fill="#F08605"/>
</svg>
