<svg width="50" height="50" viewBox="0 0 50 50" fill="none" xmlns="http://www.w3.org/2000/svg">
<path d="M10.1323 33.2366C15.0826 39.1318 21.0417 43.7733 27.8432 47.0576C30.4327 48.2802 33.8959 49.7306 37.7542 49.9793C37.9934 49.9896 38.2222 50 38.4614 50C41.0509 50 43.1309 49.109 44.8261 47.2752C44.8365 47.2648 44.8573 47.2441 44.8677 47.2234C45.4709 46.4981 46.1573 45.8454 46.8748 45.1513C47.3636 44.685 47.8628 44.1981 48.3412 43.7008C50.5564 41.4007 50.5564 38.4791 48.3204 36.2516L42.0701 30.0249C41.0093 28.9266 39.7406 28.3465 38.4094 28.3465C37.0782 28.3465 35.799 28.9266 34.7071 30.0145L30.9839 33.7236C30.6407 33.5267 30.2871 33.3506 29.9543 33.1848C29.5383 32.9776 29.1535 32.7808 28.8104 32.5632C25.42 30.4186 22.3417 27.6212 19.3985 24.0261C17.9113 22.1508 16.913 20.576 16.2162 18.9702C17.1938 18.0895 18.1089 17.1674 18.9929 16.2661C19.3049 15.9449 19.6273 15.6237 19.9497 15.3025C21.0729 14.1836 21.6761 12.8885 21.6761 11.5727C21.6761 10.2569 21.0833 8.96187 19.9497 7.84293L16.8506 4.75549C16.4866 4.39287 16.1434 4.04061 15.7898 3.67799C15.1034 2.97348 14.3858 2.24824 13.6786 1.59552C12.6074 0.549109 11.3491 0 10.0179 0C8.6971 0 7.42832 0.549109 6.31554 1.60588L2.42601 5.48073C1.01163 6.88976 0.210845 8.59925 0.0444479 10.5781C-0.153149 13.0543 0.304444 15.6859 1.49002 18.8666C3.30999 23.7878 6.05554 28.3568 10.1323 33.2366ZM2.582 10.7957C2.7068 9.41774 3.23719 8.26772 4.23558 7.2731L8.10431 3.41898C8.7075 2.83879 9.37309 2.53833 10.0179 2.53833C10.6523 2.53833 11.2971 2.83879 11.8898 3.4397C12.5866 4.08206 13.2418 4.75549 13.949 5.47037C14.3026 5.83299 14.6666 6.19561 15.0306 6.56859L18.1297 9.65603C18.7745 10.2984 19.1073 10.9511 19.1073 11.5935C19.1073 12.2358 18.7745 12.8885 18.1297 13.5309C17.8073 13.8521 17.4849 14.1836 17.1626 14.5048C16.1954 15.4787 15.2906 16.4007 14.2922 17.2814C14.2714 17.3021 14.261 17.3125 14.2402 17.3332C13.377 18.1931 13.5122 19.0116 13.7202 19.6332C13.7306 19.6643 13.741 19.685 13.7514 19.7161C14.5522 21.6328 15.665 23.4563 17.4018 25.632C20.5217 29.4654 23.808 32.4389 27.4272 34.7286C27.8744 35.0187 28.3528 35.2466 28.8 35.4745C29.2159 35.6817 29.6007 35.8786 29.9439 36.0961C29.9855 36.1169 30.0167 36.1376 30.0583 36.1583C30.4015 36.3344 30.7343 36.4173 31.0671 36.4173C31.8991 36.4173 32.4399 35.8889 32.6167 35.7128L36.5062 31.838C37.1094 31.237 37.7646 30.9159 38.4094 30.9159C39.1998 30.9159 39.8446 31.4028 40.2502 31.838L46.5213 38.075C47.7692 39.3183 47.7588 40.6651 46.49 41.9809C46.0533 42.4472 45.5957 42.8927 45.1069 43.3589C44.3789 44.0634 43.6197 44.7886 42.9333 45.6071C41.7373 46.8918 40.3126 47.4927 38.4718 47.4927C38.295 47.4927 38.1078 47.4824 37.931 47.472C34.5199 47.2545 31.3479 45.9283 28.9663 44.799C22.4977 41.6805 16.8194 37.2565 12.1082 31.6411C8.22911 26.9892 5.61875 22.6585 3.89238 18.017C2.8212 15.1678 2.41561 12.8782 2.582 10.7957Z" fill="white"/>
</svg>
