<svg width="21" height="20" viewBox="0 0 21 20" fill="none" xmlns="http://www.w3.org/2000/svg">
<g clip-path="url(#clip0)">
<path d="M4.07992 13.2947C6.05479 15.6527 8.43209 17.5093 11.1455 18.823C12.1785 19.3121 13.5601 19.8923 15.0993 19.9917C15.1948 19.9959 15.286 20 15.3815 20C16.4145 20 17.2443 19.6436 17.9206 18.9101C17.9247 18.9059 17.933 18.8976 17.9372 18.8893C18.1778 18.5993 18.4516 18.3382 18.7379 18.0605C18.9329 17.874 19.132 17.6792 19.3229 17.4803C20.2066 16.5603 20.2066 15.3916 19.3146 14.5006L16.8211 12.0099C16.3979 11.5707 15.8918 11.3386 15.3607 11.3386C14.8297 11.3386 14.3193 11.5707 13.8837 12.0058L12.3984 13.4894C12.2615 13.4107 12.1204 13.3402 11.9877 13.2739C11.8217 13.191 11.6682 13.1123 11.5313 13.0253C10.1788 12.1674 8.9507 11.0485 7.77657 9.61044C7.18328 8.86034 6.78499 8.23042 6.50701 7.58807C6.89701 7.23581 7.26211 6.86697 7.61476 6.50642C7.73923 6.37795 7.86784 6.24948 7.99646 6.12101C8.44454 5.67344 8.68517 5.15541 8.68517 4.62909C8.68517 4.10278 8.44869 3.58475 7.99646 3.13717L6.76009 1.9022C6.61488 1.75715 6.47797 1.61625 6.33691 1.4712C6.06308 1.18939 5.77681 0.899296 5.49469 0.63821C5.06735 0.219644 4.56534 0 4.03428 0C3.50738 0 3.00121 0.219644 2.55728 0.642354L1.00561 2.19229C0.441358 2.75591 0.121895 3.4397 0.0555127 4.23125C-0.0233159 5.22172 0.159235 6.27435 0.632206 7.54662C1.35826 9.51513 2.45356 11.3427 4.07992 13.2947ZM1.06784 4.31828C1.11762 3.76709 1.32922 3.30709 1.72751 2.90924L3.27089 1.36759C3.51153 1.13552 3.77705 1.01533 4.03428 1.01533C4.28736 1.01533 4.5446 1.13552 4.78108 1.37588C5.05906 1.63282 5.32044 1.9022 5.60256 2.18815C5.74362 2.3332 5.88883 2.47824 6.03404 2.62743L7.27041 3.86241C7.52764 4.11935 7.6604 4.38044 7.6604 4.63738C7.6604 4.89432 7.52764 5.15541 7.27041 5.41235C7.14179 5.54082 7.01318 5.67344 6.88456 5.80191C6.49872 6.19146 6.13776 6.5603 5.73947 6.91256C5.73117 6.92085 5.72703 6.92499 5.71873 6.93328C5.37437 7.27725 5.42831 7.60464 5.51128 7.85329C5.51543 7.86573 5.51958 7.87402 5.52373 7.88645C5.84319 8.65313 6.28712 9.38251 6.97998 10.2528C8.22465 11.7862 9.53569 12.9755 10.9795 13.8914C11.1579 14.0075 11.3487 14.0986 11.5272 14.1898C11.6931 14.2727 11.8466 14.3514 11.9835 14.4385C12.0001 14.4467 12.0126 14.455 12.0292 14.4633C12.1661 14.5338 12.2988 14.5669 12.4316 14.5669C12.7635 14.5669 12.9793 14.3556 13.0498 14.2851L14.6015 12.7352C14.8421 12.4948 15.1035 12.3663 15.3607 12.3663C15.676 12.3663 15.9333 12.5611 16.0951 12.7352L18.5968 15.23C19.0947 15.7273 19.0905 16.2661 18.5844 16.7924C18.4101 16.9789 18.2276 17.1571 18.0326 17.3436C17.7422 17.6254 17.4393 17.9155 17.1655 18.2429C16.6884 18.7567 16.12 18.9971 15.3856 18.9971C15.3151 18.9971 15.2404 18.993 15.1699 18.9888C13.809 18.9018 12.5436 18.3713 11.5935 17.9196C9.01293 16.6722 6.74765 14.9026 4.86821 12.6564C3.32068 10.7957 2.27931 9.06341 1.5906 7.2068C1.16326 6.06714 1.00146 5.15126 1.06784 4.31828Z" fill="white"/>
</g>
<defs>
<clipPath id="clip0">
<rect width="20.0225" height="20" fill="white"/>
</clipPath>
</defs>
</svg>
