<svg width="25" height="21" viewBox="0 0 25 21" fill="none" xmlns="http://www.w3.org/2000/svg">
<path d="M22.9233 4.11613C22.1052 4.475 21.2334 4.71288 20.3246 4.82838C21.2596 4.27013 21.9732 3.39287 22.3087 2.3355C21.4369 2.85525 20.4744 3.22238 19.4487 3.42725C18.6209 2.54588 17.4412 2 16.1542 2C13.6572 2 11.6469 4.02675 11.6469 6.51137C11.6469 6.86887 11.6772 7.21263 11.7514 7.53988C8.00181 7.357 4.68393 5.55987 2.45506 2.82225C2.06593 3.49738 1.83768 4.27012 1.83768 5.102C1.83768 6.664 2.64206 8.04862 3.84106 8.85025C3.11643 8.8365 2.40556 8.62613 1.80331 8.29475C1.80331 8.3085 1.80331 8.32638 1.80331 8.34425C1.80331 10.536 3.36668 12.3565 5.41681 12.7759C5.04968 12.8763 4.64956 12.9244 4.23431 12.9244C3.94556 12.9244 3.65406 12.9079 3.38043 12.8474C3.96481 14.6335 5.62306 15.9466 7.59481 15.9893C6.06031 17.1896 4.11193 17.9129 2.00268 17.9129C1.63281 17.9129 1.27806 17.8964 0.923309 17.851C2.92118 19.1394 5.28893 19.875 7.84231 19.875C16.1418 19.875 20.6793 13 20.6793 7.04075C20.6793 6.84138 20.6724 6.64887 20.6628 6.45775C21.5579 5.8225 22.3101 5.02913 22.9233 4.11613Z" stroke="white" stroke-width="1.5"/>
</svg>
